<svg width="125" height="125" viewBox="0 0 125 125" fill="none" xmlns="http://www.w3.org/2000/svg">
<circle cx="62.5" cy="62.5" r="62.5" fill="#252525"/>
<path d="M52.728 46.4V80H46.488V51.632H39.384V46.4H52.728ZM69.9053 59.408C74.6413 59.408 78.1453 60.336 80.4173 62.192C82.6893 64.016 83.8253 66.512 83.8253 69.68C83.8253 71.696 83.3293 73.52 82.3373 75.152C81.3453 76.784 79.8573 78.08 77.8733 79.04C75.8893 80 73.4413 80.48 70.5293 80.48C68.1293 80.48 65.8093 80.144 63.5693 79.472C61.3293 78.768 59.4413 77.808 57.9053 76.592L60.5453 71.744C61.7933 72.768 63.2813 73.584 65.0093 74.192C66.7693 74.768 68.5773 75.056 70.4333 75.056C72.6413 75.056 74.3693 74.608 75.6173 73.712C76.8973 72.784 77.5373 71.52 77.5373 69.92C77.5373 68.192 76.8493 66.896 75.4733 66.032C74.1293 65.136 71.8093 64.688 68.5133 64.688H60.4013L62.1293 46.4H81.8573V51.632H67.4093L66.6893 59.408H69.9053Z" fill="white"/>
</svg>
