<svg width="125" height="125" viewBox="0 0 125 125" fill="none" xmlns="http://www.w3.org/2000/svg">
<circle cx="62.5" cy="62.5" r="62.5" fill="#252525"/>
<path d="M62.5 67.4805C63.8753 67.4805 64.9902 66.3656 64.9902 64.9902C64.9902 63.6149 63.8753 62.5 62.5 62.5C61.1247 62.5 60.0098 63.6149 60.0098 64.9902C60.0098 66.3656 61.1247 67.4805 62.5 67.4805Z" fill="white"/>
<path d="M62.5 20C39.0988 20 20 39.0999 20 62.5C20 85.9017 39.0999 105 62.5 105C85.9016 105 105 85.9001 105 62.5C105 39.0988 85.9001 20 62.5 20ZM62.5 30.127C78.6571 30.127 92.0871 42.025 94.4899 57.5195H85.8539C80.3784 57.5195 75.1761 55.3223 71.5811 51.4913C66.667 46.2542 58.3335 46.2526 53.4189 51.4912C49.8239 55.3223 44.6216 57.5195 39.1459 57.5195H30.5101C32.9129 42.025 46.3429 30.127 62.5 30.127ZM62.5 72.4609C58.3808 72.4609 55.0293 69.1097 55.0293 64.9902C55.0293 60.8707 58.3808 57.5195 62.5 57.5195C66.6195 57.5195 69.9707 60.8707 69.9707 64.9902C69.9707 69.1097 66.6195 72.4609 62.5 72.4609ZM32.3549 74.3032C35.2054 73.1849 37.2636 72.4609 40.0879 72.4609C49.167 72.4609 56.2278 80.5515 54.8601 89.6419H54.8543C54.6511 91.0333 54.2513 92.3815 53.6748 93.6503C43.9199 90.8829 36.0257 83.6459 32.3549 74.3032ZM71.3272 93.6497C70.7349 92.3473 70.3437 90.9992 70.1457 89.6419H70.1399C68.5463 79.0493 78.3246 70.309 88.4604 72.8849C89.5288 73.1565 90.8659 73.6054 92.645 74.3034C88.9745 83.6452 81.0811 90.8819 71.3272 93.6497Z" fill="white"/>
</svg>
