<svg width="50" height="50" viewBox="0 0 50 50" fill="none" xmlns="http://www.w3.org/2000/svg">
<circle cx="25" cy="25" r="25" fill="#55F381"/>
<g clip-path="url(#clip0)">
<path d="M40.4849 9.89366L33.8834 8.37022C33.1661 8.20518 32.4297 8.5797 32.1378 9.25255L29.0909 16.3619C28.8243 16.984 29.002 17.714 29.5289 18.1393L33.3755 21.2877C31.0904 26.1564 27.0977 30.2062 22.1275 32.5357L18.9791 28.6891C18.5474 28.1622 17.8238 27.9845 17.2017 28.2511L10.0923 31.298C9.41314 31.5963 9.03862 32.3326 9.20366 33.0499L10.7271 39.6515C10.8858 40.337 11.4952 40.8321 12.2125 40.8321C28.4688 40.8321 41.6656 27.6607 41.6656 11.379C41.6656 10.6681 41.1768 10.0524 40.4849 9.89366Z" fill="white"/>
</g>
<defs>
<clipPath id="clip0">
<rect width="32.5" height="32.5" fill="white" transform="translate(9.16675 8.33331)"/>
</clipPath>
</defs>
</svg>
