<svg width="586" height="450" viewBox="0 0 586 450" fill="none" xmlns="http://www.w3.org/2000/svg">
<path d="M552.925 321.649C552.925 322.654 552.925 323.659 552.861 324.653C552.711 328.52 552.247 332.368 551.471 336.16C547.636 354.925 536.563 369.512 522.653 373.82C519.887 374.682 517.006 375.122 514.108 375.123C492.668 375.123 475.291 351.162 475.291 321.649C475.291 292.136 492.668 268.175 514.108 268.175C534.217 268.175 550.759 289.249 552.726 316.243C552.861 318.02 552.925 319.825 552.925 321.649Z" fill="#36334A"/>
<path opacity="0.1" d="M552.861 324.659C552.711 328.526 552.247 332.374 551.471 336.166C547.636 354.931 536.563 369.518 522.653 373.825C511.884 368.864 503.893 350.268 503.893 328.083C503.893 302.1 514.867 281.038 528.409 281.038C539.774 281.038 549.335 295.894 552.108 316.05C552.493 318.814 552.744 321.701 552.861 324.659Z" fill="black"/>
<path d="M357.964 203.305C357.964 203.305 463.033 181.682 518.486 201.552C518.486 201.552 526.658 205.643 518.486 212.655C518.486 212.655 526.214 220.837 512.718 223.759L459.104 227.061L357.964 216.746V203.305Z" fill="#3F3D56"/>
<path opacity="0.1" d="M376.351 206.022C376.351 206.022 466.307 187.508 513.787 204.52C513.787 204.52 520.791 208.027 513.787 214.029C513.787 214.029 520.4 221.042 508.848 223.537L462.945 226.36L376.351 217.541V206.022Z" fill="black"/>
<path d="M478.793 238.37L471.788 224.344C471.788 224.344 474.859 210.154 449.899 205.981C448.516 199.793 442.247 195.123 434.722 195.123C427.379 195.123 421.239 199.565 419.651 205.526C416.067 205.835 412.249 206.256 408.163 206.811L402.455 237.458L401.742 236.032C401.742 236.032 405.367 219.271 372.697 216.822C374.478 214.661 375.459 211.951 375.475 209.149C375.475 201.721 368.547 195.707 360.007 195.707C351.467 195.707 344.538 201.721 344.538 209.149C344.561 212.2 345.718 215.134 347.784 217.378C344.729 217.67 341.507 218.044 338.117 218.5L331.697 252.98L361.466 257.071L408.747 250.058L404.562 241.672L431.512 245.377L478.793 238.37Z" fill="#444444"/>
<path opacity="0.2" d="M478.793 238.37L471.788 224.344C471.788 224.344 474.859 210.154 449.899 205.981C448.516 199.793 442.247 195.123 434.722 195.123C427.379 195.123 421.239 199.565 419.651 205.526C416.067 205.835 412.249 206.256 408.163 206.811L402.455 237.458L401.742 236.032C401.742 236.032 405.367 219.271 372.697 216.822C374.478 214.661 375.459 211.951 375.475 209.149C375.475 201.721 368.547 195.707 360.007 195.707C351.467 195.707 344.538 201.721 344.538 209.149C344.561 212.2 345.718 215.134 347.784 217.378C344.729 217.67 341.507 218.044 338.117 218.5L331.697 252.98L361.466 257.071L408.747 250.058L404.562 241.672L431.512 245.377L478.793 238.37Z" fill="black"/>
<path d="M378.382 207.326C378.382 207.326 373.712 181.097 395.31 180.513C416.907 179.928 409.903 218.5 409.903 218.5C409.903 218.5 426.247 222.006 427.414 228.435C428.582 234.863 370.794 236.616 370.794 236.616L378.382 207.326Z" fill="#454545"/>
<path d="M340.452 345.902C340.452 376.876 317.454 402.006 289.085 402.006C260.717 402.006 237.718 376.876 237.718 345.902C237.718 314.928 261.003 284.831 289.377 284.831C317.752 284.831 340.452 314.916 340.452 345.902Z" fill="#36334A"/>
<path opacity="0.1" d="M289.085 395.571C311.652 395.571 329.945 374.38 329.945 348.24C329.945 322.099 311.652 300.908 289.085 300.908C266.519 300.908 248.225 322.099 248.225 348.24C248.225 374.38 266.519 395.571 289.085 395.571Z" fill="black"/>
<path d="M63.1873 396.74C91.5565 396.74 114.554 371.622 114.554 340.636C114.554 309.651 91.5565 284.533 63.1873 284.533C34.8181 284.533 11.8203 309.651 11.8203 340.636C11.8203 371.622 34.8181 396.74 63.1873 396.74Z" fill="#36334A"/>
<path d="M150.745 206.811C150.745 206.811 126.812 207.98 127.98 220.837C129.147 233.694 148.41 224.344 148.41 224.344L150.745 206.811Z" fill="#36334A"/>
<path d="M349.862 228.23L359.715 162.396C359.715 162.396 362.05 154.214 330.529 154.214C330.529 154.214 229.546 147.785 203.863 158.305C203.863 158.305 174.093 169.409 132.649 226.681C132.649 226.681 345.776 231.737 349.862 228.23Z" fill="#3F3D56"/>
<path d="M346.289 159.474L328.194 231.357L316.847 231.082L263.145 229.773L143.372 226.851C143.04 221.17 199.759 162.396 199.759 162.396L346.289 159.474Z" fill="#36334A"/>
<path opacity="0.2" d="M263.162 229.773L268.054 210.838C268.054 210.838 263.384 184.604 284.982 184.019C306.579 183.435 299.575 222.006 299.575 222.006C299.575 222.006 314.459 225.203 316.829 231.082L263.162 229.773Z" fill="#333333"/>
<path d="M553.217 317.558C549.714 283.662 527.825 276.357 527.825 276.357C506.811 275.188 492.802 355.253 492.802 355.253L331.113 369.863C331.113 369.863 336.658 301.779 297.549 290.675C258.44 279.571 248.225 359.344 246.474 370.447C244.723 381.551 10.6528 369.279 4.23194 364.603C-2.18893 359.928 0.145929 314.928 1.89708 311.422C3.64822 307.915 8.31795 292.136 8.31795 292.136C8.31795 288.372 10.1158 283.615 11.6101 280.313C12.6608 277.976 13.5714 276.357 13.5714 276.357C18.6439 247.557 44.9811 240.585 46.7498 240.123H46.8432C53.8478 233.11 118.64 228.435 118.64 228.435L143.156 223.759L342.478 227.681L350.959 227.85L452.292 222.97L520.82 219.668C536.581 219.668 544.753 259.409 544.753 259.409C559.346 294.474 553.217 317.558 553.217 317.558Z" fill="#3F3D56"/>
<path opacity="0.1" d="M224.612 283.14C240.008 276.937 249.345 264.085 245.466 254.434C241.587 244.784 225.961 241.989 210.565 248.192C195.169 254.395 185.832 267.246 189.711 276.897C193.59 286.548 209.215 289.343 224.612 283.14Z" fill="black"/>
<path d="M223.445 280.799C238.841 274.597 248.178 261.745 244.299 252.094C240.42 242.444 224.795 239.649 209.399 245.852C194.002 252.054 184.666 264.906 188.545 274.557C192.423 284.207 208.049 287.002 223.445 280.799Z" fill="#F2F2F2"/>
<path opacity="0.1" d="M47.9173 241.315C47.6196 247.744 44.7419 255.855 39.5643 263.669C31.2347 276.246 19.8114 283.65 12.7776 281.482C13.8283 279.144 14.7389 277.525 14.7389 277.525C19.8114 248.726 46.1486 241.753 47.9173 241.315Z" fill="black"/>
<path d="M46.1661 240.146C45.8684 246.575 42.9907 254.687 37.8131 262.5C29.4835 275.077 18.0601 282.481 11.0264 280.313C12.0771 277.976 12.9877 276.357 12.9877 276.357C18.0601 247.557 44.3974 240.585 46.1661 240.146Z" fill="#F2F2F2"/>
<path d="M127.98 257.65H81.8661L79.5312 251.221H135.568L127.98 257.65Z" fill="#36334A"/>
<path d="M117.473 304.987H41.5898V327.195H117.473V304.987Z" fill="#36334A"/>
<path opacity="0.1" d="M199.193 348.818C204.996 348.818 209.7 344.109 209.7 338.299C209.7 332.489 204.996 327.779 199.193 327.779C193.39 327.779 188.686 332.489 188.686 338.299C188.686 344.109 193.39 348.818 199.193 348.818Z" fill="black"/>
<path d="M198.026 347.065C203.828 347.065 208.533 342.355 208.533 336.546C208.533 330.736 203.828 326.026 198.026 326.026C192.223 326.026 187.519 330.736 187.519 336.546C187.519 342.355 192.223 347.065 198.026 347.065Z" fill="#F2F2F2"/>
<path opacity="0.1" d="M8.3179 341.221C11.2193 341.221 13.5713 336.25 13.5713 330.117C13.5713 323.984 11.2193 319.013 8.3179 319.013C5.4165 319.013 3.06445 323.984 3.06445 330.117C3.06445 336.25 5.4165 341.221 8.3179 341.221Z" fill="black"/>
<path d="M6.5668 340.636C9.46819 340.636 11.8202 335.665 11.8202 329.533C11.8202 323.4 9.46819 318.429 6.5668 318.429C3.6654 318.429 1.31335 323.4 1.31335 329.533C1.31335 335.665 3.6654 340.636 6.5668 340.636Z" fill="#F2F2F2"/>
<path d="M469.453 282.785C463.033 302.655 462.449 333.629 462.449 333.629L460.114 341.811L346.289 354.668C346.289 354.668 346.873 297.396 348.624 270.513C349.856 251.548 345.285 235.494 342.478 227.681L350.959 227.85L452.292 222.97C469.22 234.852 475.215 264.943 469.453 282.785Z" fill="#36334A"/>
<path d="M443.501 246.961C443.103 246.987 442.714 247.097 442.361 247.282C442.007 247.468 441.696 247.726 441.448 248.039C441.199 248.352 441.019 248.714 440.918 249.101C440.818 249.488 440.799 249.891 440.863 250.286C440.919 250.616 441.054 250.928 441.257 251.194C441.461 251.46 441.726 251.672 442.031 251.811C443.916 252.752 456.466 250.642 461.223 249.801C461.927 249.687 462.574 249.342 463.062 248.821C463.55 248.299 463.852 247.631 463.92 246.92C463.978 246.09 463.675 245.383 462.461 245.383L443.501 246.961Z" fill="#F2F2F2"/>
<path d="M342.203 225.513C342.203 225.513 345.122 238.37 359.131 234.279L363.801 216.162L354.462 210.902L342.203 225.513Z" fill="#36334A"/>
<path d="M359.359 199.407C365.78 195.596 375.966 192.265 386.04 200.266C388.138 201.924 389.617 204.239 390.24 206.841C390.864 209.442 390.596 212.177 389.479 214.607C386.181 221.755 378.353 229.51 360.077 220.224C358.283 219.312 356.752 217.956 355.629 216.285L355.535 216.144C354.651 214.806 354.048 213.301 353.761 211.721C353.474 210.142 353.511 208.521 353.868 206.956C354.226 205.391 354.897 203.916 355.841 202.618C356.784 201.32 357.981 200.228 359.359 199.407Z" fill="#36334A"/>
<path d="M289.377 357.292C295.825 357.292 301.052 352.059 301.052 345.604C301.052 339.149 295.825 333.916 289.377 333.916C282.93 333.916 277.703 339.149 277.703 345.604C277.703 352.059 282.93 357.292 289.377 357.292Z" fill="#F2F2F2"/>
<path d="M530.452 336.253C533.998 336.253 536.873 331.02 536.873 324.565C536.873 318.11 533.998 312.877 530.452 312.877C526.906 312.877 524.031 318.11 524.031 324.565C524.031 331.02 526.906 336.253 530.452 336.253Z" fill="#F2F2F2"/>
<path d="M289.669 309.663H288.502C284.633 309.663 281.497 312.802 281.497 316.675V323.104C281.497 326.977 284.633 330.117 288.502 330.117H289.669C293.537 330.117 296.674 326.977 296.674 323.104V316.675C296.674 312.802 293.537 309.663 289.669 309.663Z" fill="#36334A"/>
<path d="M530.452 287.163C530.988 287.163 531.52 287.268 532.015 287.474C532.511 287.679 532.962 287.981 533.341 288.361C533.721 288.741 534.021 289.192 534.227 289.688C534.432 290.184 534.538 290.716 534.538 291.253V300.604C534.538 302.464 533.8 304.248 532.486 305.563C531.173 306.878 529.391 307.617 527.533 307.617C526.45 307.617 525.41 307.186 524.644 306.419C523.878 305.652 523.447 304.611 523.447 303.526V294.175C523.447 292.316 524.185 290.532 525.499 289.217C526.812 287.901 528.594 287.163 530.452 287.163Z" fill="#36334A"/>
<path d="M530.452 361.973C528.594 361.973 526.812 361.235 525.499 359.919C524.185 358.604 523.447 356.82 523.447 354.96V348.532C523.447 346.672 524.185 344.888 525.499 343.573C526.812 342.258 528.594 341.519 530.452 341.519C534.304 341.519 533.954 344.675 533.954 348.532V354.96C533.948 358.818 534.316 361.973 530.452 361.973Z" fill="#36334A"/>
<path d="M512.94 314.046C514.798 314.046 516.58 314.784 517.893 316.1C519.207 317.415 519.945 319.199 519.945 321.059V329.825C519.945 331.065 519.453 332.254 518.577 333.131C517.701 334.008 516.514 334.5 515.275 334.5C513.418 334.5 511.636 333.761 510.322 332.446C509.009 331.131 508.271 329.347 508.271 327.487V318.721C508.271 317.481 508.763 316.292 509.638 315.415C510.514 314.538 511.702 314.046 512.94 314.046Z" fill="#36334A"/>
<path d="M552.925 321.649C552.925 322.654 552.925 323.659 552.861 324.653C552.711 328.52 552.247 332.368 551.471 336.16C551.086 336.225 550.695 336.258 550.304 336.259C548.446 336.259 546.665 335.52 545.351 334.205C544.037 332.89 543.299 331.106 543.299 329.246V322.818C543.299 320.958 544.037 319.174 545.351 317.859C546.665 316.544 548.446 315.805 550.304 315.805C550.915 315.803 551.524 315.884 552.113 316.044C552.324 316.103 552.534 316.167 552.732 316.243C552.861 318.02 552.925 319.825 552.925 321.649Z" fill="#36334A"/>
<path d="M319.147 334.5H317.979C314.111 334.5 310.975 337.64 310.975 341.513V347.942C310.975 351.815 314.111 354.955 317.979 354.955H319.147C323.015 354.955 326.151 351.815 326.151 347.942V341.513C326.151 337.64 323.015 334.5 319.147 334.5Z" fill="#36334A"/>
<path d="M261.943 334.5H260.775C256.907 334.5 253.771 337.64 253.771 341.513V347.942C253.771 351.815 256.907 354.955 260.775 354.955H261.943C265.811 354.955 268.947 351.815 268.947 347.942V341.513C268.947 337.64 265.811 334.5 261.943 334.5Z" fill="#36334A"/>
<path d="M289.961 364.89H288.793C284.925 364.89 281.789 368.029 281.789 371.903V378.331C281.789 382.204 284.925 385.344 288.793 385.344H289.961C293.829 385.344 296.965 382.204 296.965 378.331V371.903C296.965 368.029 293.829 364.89 289.961 364.89Z" fill="#36334A"/>
<path d="M330.29 94.5799C356.407 94.5799 377.58 73.4075 377.58 47.29C377.58 21.1724 356.407 0 330.29 0C304.172 0 283 21.1724 283 47.29C283 73.4075 304.172 94.5799 330.29 94.5799Z" fill="#55F381"/>
<path d="M322.154 66.884L308 48.685L316.231 42.283L322.933 50.9L345.573 27L353.144 34.173L322.154 66.884Z" fill="white"/>
<path d="M584.717 188.547H582.32C581.611 188.547 581.037 189.121 581.037 189.83V228.168C581.037 228.876 581.611 229.451 582.32 229.451H584.717C585.426 229.451 586 228.876 586 228.168V189.83C586 189.121 585.426 188.547 584.717 188.547Z" fill="#676767"/>
<path d="M417.602 156.5H417.384C416.675 156.5 416.101 157.074 416.101 157.783V168.683C416.101 169.392 416.675 169.966 417.384 169.966H417.602C418.311 169.966 418.885 169.392 418.885 168.683V157.783C418.885 157.074 418.311 156.5 417.602 156.5Z" fill="#3A3768"/>
<path d="M417.854 181.158H417.283C416.574 181.158 416 181.733 416 182.441V203.313C416 204.022 416.574 204.596 417.283 204.596H417.854C418.563 204.596 419.137 204.022 419.137 203.313V182.441C419.137 181.733 418.563 181.158 417.854 181.158Z" fill="#3A3768"/>
<path d="M417.753 212.797H417.333C416.625 212.797 416.051 213.371 416.051 214.08V235.153C416.051 235.862 416.625 236.436 417.333 236.436H417.753C418.462 236.436 419.036 235.862 419.036 235.153V214.08C419.036 213.371 418.462 212.797 417.753 212.797Z" fill="#3A3768"/>
<path d="M561.874 112H439.522C427.459 112 417.681 121.779 417.681 133.841V427.599C417.681 439.661 427.459 449.44 439.522 449.44H561.874C573.936 449.44 583.715 439.661 583.715 427.599V133.841C583.715 121.779 573.936 112 561.874 112Z" fill="#505050"/>
<path d="M505.7 122.077H486.85C485.653 122.077 484.682 123.048 484.682 124.245V124.615C484.682 125.812 485.653 126.783 486.85 126.783H505.7C506.897 126.783 507.868 125.812 507.868 124.615V124.245C507.868 123.048 506.897 122.077 505.7 122.077Z" fill="#E6E8EC"/>
<path d="M514.041 127.102C515.516 127.102 516.713 125.906 516.713 124.43C516.713 122.954 515.516 121.758 514.041 121.758C512.565 121.758 511.369 122.954 511.369 124.43C511.369 125.906 512.565 127.102 514.041 127.102Z" fill="#E6E8EC"/>
<path d="M560.255 120.789H541.265V123.08C541.265 125.959 540.121 128.721 538.085 130.757C536.049 132.792 533.288 133.936 530.409 133.936H469.81C466.931 133.936 464.169 132.792 462.133 130.757C460.098 128.721 458.954 125.959 458.954 123.08V120.789H441.118C439.387 120.789 437.672 121.13 436.073 121.793C434.473 122.456 433.02 123.427 431.796 124.652C430.572 125.876 429.601 127.33 428.939 128.93C428.277 130.529 427.937 132.244 427.937 133.975V427.465C427.937 429.196 428.277 430.911 428.939 432.51C429.601 434.11 430.572 435.564 431.796 436.788C433.02 438.013 434.473 438.984 436.073 439.647C437.672 440.31 439.387 440.651 441.118 440.651H560.255C563.752 440.651 567.106 439.262 569.579 436.789C572.052 434.316 573.441 430.962 573.441 427.465V133.975C573.441 130.478 572.052 127.124 569.579 124.651C567.106 122.178 563.752 120.789 560.255 120.789Z" fill="#404040"/>
<path opacity="0.1" d="M517.503 173.451H434.037V186.895H517.503V173.451Z" fill="black" stroke="#6C63FF" stroke-miterlimit="10"/>
<path opacity="0.1" d="M454.204 265.318C464.104 265.318 472.129 257.293 472.129 247.393C472.129 237.493 464.104 229.467 454.204 229.467C444.304 229.467 436.278 237.493 436.278 247.393C436.278 257.293 444.304 265.318 454.204 265.318Z" fill="black" stroke="#6C63FF" stroke-miterlimit="10"/>
<path d="M449.162 244.032V250.754H453.643L459.245 256.608V238.172L453.643 244.032H449.162Z" fill="white"/>
<path opacity="0.1" d="M501.818 265.318C511.718 265.318 519.743 257.293 519.743 247.393C519.743 237.493 511.718 229.467 501.818 229.467C491.918 229.467 483.892 237.493 483.892 247.393C483.892 257.293 491.918 265.318 501.818 265.318Z" fill="black" stroke="#6C63FF" stroke-miterlimit="10"/>
<path d="M501.818 254.877C501.394 254.874 500.979 254.998 500.626 255.232C500.273 255.466 499.997 255.799 499.833 256.19C499.669 256.581 499.625 257.011 499.707 257.427C499.788 257.843 499.991 258.225 500.29 258.526C500.588 258.826 500.97 259.031 501.385 259.114C501.8 259.198 502.231 259.156 502.623 258.994C503.015 258.833 503.349 258.559 503.585 258.206C503.821 257.854 503.947 257.44 503.947 257.016C503.947 256.451 503.723 255.908 503.324 255.507C502.925 255.106 502.383 254.88 501.818 254.877ZM495.544 235.629C495.12 235.626 494.705 235.749 494.351 235.982C493.997 236.215 493.72 236.548 493.555 236.939C493.391 237.329 493.346 237.76 493.426 238.176C493.507 238.592 493.71 238.975 494.008 239.276C494.307 239.577 494.688 239.783 495.104 239.867C495.519 239.95 495.95 239.909 496.342 239.748C496.734 239.586 497.069 239.312 497.305 238.96C497.541 238.607 497.667 238.193 497.667 237.769C497.667 237.204 497.444 236.663 497.046 236.262C496.649 235.861 496.109 235.634 495.544 235.629ZM495.544 242.049C495.12 242.045 494.704 242.168 494.35 242.402C493.996 242.635 493.719 242.968 493.555 243.359C493.39 243.75 493.346 244.181 493.427 244.598C493.508 245.014 493.711 245.397 494.01 245.698C494.309 245.998 494.691 246.203 495.107 246.287C495.523 246.37 495.954 246.328 496.346 246.166C496.738 246.003 497.073 245.728 497.308 245.375C497.543 245.022 497.668 244.607 497.667 244.183C497.667 243.619 497.444 243.078 497.046 242.678C496.648 242.278 496.108 242.052 495.544 242.049ZM495.544 248.463C495.12 248.459 494.705 248.582 494.351 248.815C493.997 249.048 493.72 249.381 493.555 249.772C493.391 250.163 493.346 250.593 493.426 251.01C493.507 251.426 493.71 251.809 494.008 252.11C494.307 252.411 494.688 252.616 495.104 252.7C495.519 252.784 495.95 252.743 496.342 252.581C496.734 252.42 497.069 252.145 497.305 251.793C497.541 251.441 497.667 251.026 497.667 250.603C497.667 250.038 497.444 249.496 497.046 249.095C496.649 248.695 496.109 248.467 495.544 248.463ZM508.092 239.909C508.515 239.911 508.93 239.788 509.284 239.554C509.637 239.32 509.913 238.987 510.077 238.596C510.24 238.205 510.284 237.774 510.203 237.359C510.122 236.943 509.919 236.56 509.62 236.26C509.321 235.96 508.94 235.755 508.525 235.671C508.109 235.588 507.678 235.629 507.287 235.791C506.895 235.953 506.56 236.227 506.325 236.579C506.089 236.931 505.963 237.345 505.963 237.769C505.962 238.049 506.017 238.327 506.123 238.586C506.23 238.845 506.387 239.081 506.584 239.28C506.782 239.479 507.017 239.636 507.275 239.744C507.534 239.852 507.811 239.908 508.092 239.909ZM501.818 248.463C501.394 248.46 500.979 248.584 500.626 248.818C500.273 249.052 499.997 249.385 499.833 249.776C499.669 250.167 499.625 250.597 499.707 251.013C499.788 251.429 499.991 251.811 500.29 252.112C500.588 252.412 500.97 252.617 501.385 252.7C501.8 252.784 502.231 252.742 502.623 252.581C503.015 252.419 503.349 252.145 503.585 251.793C503.821 251.44 503.947 251.026 503.947 250.603C503.947 250.037 503.723 249.494 503.324 249.093C502.925 248.692 502.383 248.466 501.818 248.463ZM508.092 248.463C507.668 248.46 507.253 248.584 506.9 248.818C506.547 249.052 506.271 249.385 506.107 249.776C505.943 250.167 505.899 250.597 505.98 251.013C506.062 251.429 506.265 251.811 506.564 252.112C506.862 252.412 507.244 252.617 507.659 252.7C508.074 252.784 508.505 252.742 508.897 252.581C509.288 252.419 509.623 252.145 509.859 251.793C510.095 251.44 510.22 251.026 510.22 250.603C510.22 250.037 509.997 249.494 509.598 249.093C509.199 248.692 508.657 248.466 508.092 248.463ZM508.092 242.049C507.668 242.047 507.253 242.17 506.899 242.404C506.546 242.638 506.27 242.972 506.106 243.363C505.943 243.754 505.899 244.185 505.981 244.601C506.063 245.017 506.266 245.4 506.565 245.7C506.865 246 507.247 246.204 507.662 246.287C508.078 246.37 508.509 246.328 508.901 246.165C509.292 246.003 509.627 245.727 509.862 245.375C510.097 245.022 510.222 244.607 510.22 244.183C510.22 243.618 509.996 243.076 509.597 242.676C509.198 242.276 508.657 242.05 508.092 242.049ZM501.818 242.049C501.394 242.047 500.979 242.17 500.625 242.404C500.272 242.638 499.996 242.972 499.832 243.363C499.669 243.754 499.625 244.185 499.707 244.601C499.789 245.017 499.992 245.4 500.292 245.7C500.591 246 500.973 246.204 501.389 246.287C501.804 246.37 502.235 246.328 502.627 246.165C503.018 246.003 503.353 245.727 503.588 245.375C503.823 245.022 503.948 244.607 503.947 244.183C503.947 243.618 503.722 243.076 503.323 242.676C502.924 242.276 502.383 242.05 501.818 242.049ZM501.818 235.629C501.394 235.627 500.979 235.751 500.626 235.984C500.273 236.218 499.997 236.552 499.833 236.942C499.669 237.333 499.625 237.764 499.707 238.18C499.788 238.595 499.991 238.978 500.29 239.278C500.588 239.579 500.97 239.783 501.385 239.867C501.8 239.95 502.231 239.909 502.623 239.747C503.015 239.585 503.349 239.311 503.585 238.959C503.821 238.607 503.947 238.193 503.947 237.769C503.947 237.204 503.723 236.661 503.324 236.26C502.925 235.859 502.383 235.632 501.818 235.629Z" fill="white"/>
<g opacity="0.4">
<path opacity="0.1" d="M454.204 319.094C464.104 319.094 472.129 311.069 472.129 301.169C472.129 291.269 464.104 283.244 454.204 283.244C444.304 283.244 436.278 291.269 436.278 301.169C436.278 311.069 444.304 319.094 454.204 319.094Z" fill="black" stroke="#6C63FF" stroke-miterlimit="10"/>
<path opacity="0.4" d="M462.606 302.289H455.324V309.572H453.083V302.289H445.801V300.049H453.083V292.766H455.324V300.049H462.606V302.289Z" fill="white"/>
</g>
<path opacity="0.1" d="M549.432 265.318C559.332 265.318 567.358 257.293 567.358 247.393C567.358 237.493 559.332 229.467 549.432 229.467C539.532 229.467 531.507 237.493 531.507 247.393C531.507 257.293 539.532 265.318 549.432 265.318Z" fill="black" stroke="#6C63FF" stroke-miterlimit="10"/>
<path d="M549.432 236.464C548.09 236.481 546.765 236.763 545.532 237.293C544.299 237.823 543.183 238.59 542.246 239.551C541.31 240.513 540.572 241.649 540.075 242.895C539.578 244.142 539.331 245.474 539.349 246.816V254.865C539.343 255.313 539.425 255.757 539.591 256.172C539.757 256.588 540.003 256.967 540.315 257.287C540.627 257.607 540.999 257.863 541.41 258.04C541.821 258.216 542.263 258.31 542.71 258.316H546.071V249.068H541.59V246.827C541.59 244.747 542.416 242.752 543.887 241.282C545.358 239.811 547.352 238.985 549.432 238.985C551.512 238.985 553.507 239.811 554.978 241.282C556.448 242.752 557.275 244.747 557.275 246.827V249.068H552.793V258.31H556.154C556.602 258.305 557.044 258.212 557.455 258.036C557.866 257.859 558.239 257.604 558.551 257.283C558.863 256.962 559.109 256.583 559.275 256.168C559.44 255.752 559.522 255.307 559.515 254.86V246.816C559.533 245.474 559.286 244.142 558.789 242.895C558.292 241.649 557.554 240.513 556.618 239.551C555.682 238.59 554.565 237.823 553.332 237.293C552.099 236.763 550.774 236.481 549.432 236.464Z" fill="white"/>
<g opacity="0.4">
<path opacity="0.1" d="M501.818 319.094C511.718 319.094 519.743 311.069 519.743 301.169C519.743 291.269 511.718 283.244 501.818 283.244C491.918 283.244 483.892 291.269 483.892 301.169C483.892 311.069 491.918 319.094 501.818 319.094Z" fill="black" stroke="#6C63FF" stroke-miterlimit="10"/>
<path opacity="0.4" d="M508.54 299.248V294.766C508.538 294.596 508.502 294.428 508.435 294.272C508.368 294.116 508.271 293.975 508.149 293.856C508.027 293.738 507.883 293.644 507.726 293.581C507.568 293.518 507.399 293.487 507.229 293.489H491.354C491.012 293.486 490.682 293.619 490.438 293.858C490.193 294.098 490.053 294.424 490.049 294.766V307.544C490.055 307.885 490.195 308.211 490.439 308.45C490.683 308.689 491.012 308.822 491.354 308.821H507.223C507.566 308.824 507.896 308.691 508.142 308.452C508.387 308.213 508.528 307.886 508.534 307.544V303.062L513.576 308.171V294.139L508.54 299.248Z" fill="white"/>
</g>
<path opacity="0.1" d="M549.432 319.094C559.332 319.094 567.358 311.069 567.358 301.169C567.358 291.269 559.332 283.244 549.432 283.244C539.532 283.244 531.507 291.269 531.507 301.169C531.507 311.069 539.532 319.094 549.432 319.094Z" fill="black" stroke="#6C63FF" stroke-miterlimit="10"/>
<path d="M548.547 305.785C547.583 306.332 546.494 306.619 545.385 306.619C544.277 306.619 543.187 306.332 542.223 305.785C539.747 306.541 538.229 309.045 537.669 311.246H553.101C552.541 309.045 551.029 306.541 548.547 305.785ZM545.388 294.021C544.287 294.02 543.211 294.346 542.295 294.956C541.38 295.567 540.666 296.436 540.244 297.452C539.823 298.469 539.712 299.588 539.926 300.668C540.141 301.747 540.671 302.739 541.449 303.517C542.227 304.295 543.219 304.825 544.298 305.04C545.378 305.254 546.497 305.143 547.513 304.722C548.53 304.3 549.399 303.586 550.01 302.671C550.62 301.755 550.946 300.679 550.945 299.578C550.945 298.104 550.359 296.691 549.317 295.649C548.275 294.607 546.862 294.021 545.388 294.021ZM545.388 303.813C544.552 303.797 543.738 303.538 543.047 303.066C542.357 302.594 541.819 301.931 541.5 301.158H549.27C548.952 301.931 548.416 302.595 547.726 303.068C547.037 303.541 546.224 303.802 545.388 303.819V303.813Z" fill="white"/>
<path d="M552.928 307.885H561.196C560.938 306.723 560.383 305.647 559.584 304.763C558.786 303.879 557.772 303.218 556.642 302.844C555.676 303.391 554.586 303.678 553.477 303.679C552.732 303.685 551.993 303.56 551.292 303.309C550.902 303.994 550.407 304.614 549.824 305.146C551.106 305.733 552.186 306.686 552.928 307.885ZM552.087 298.223H557.364C557.044 298.994 556.505 299.655 555.815 300.124C555.124 300.594 554.312 300.852 553.477 300.867C553.022 300.863 552.572 300.784 552.143 300.631C552.074 301.08 551.96 301.522 551.802 301.948C552.567 302.192 553.376 302.267 554.173 302.169C554.971 302.071 555.737 301.801 556.42 301.378C557.103 300.956 557.686 300.39 558.13 299.72C558.574 299.051 558.867 298.293 558.99 297.499C559.113 296.705 559.062 295.894 558.842 295.122C558.621 294.349 558.236 293.634 557.713 293.024C557.189 292.415 556.54 291.926 555.81 291.592C555.08 291.257 554.285 291.084 553.482 291.086C552.547 291.087 551.628 291.324 550.808 291.774C549.989 292.225 549.296 292.874 548.794 293.663C549.634 294.147 550.361 294.804 550.929 295.59C551.497 296.376 551.892 297.273 552.087 298.223Z" fill="white"/>
<path d="M501.818 390.796C511.718 390.796 519.743 382.771 519.743 372.871C519.743 362.971 511.718 354.945 501.818 354.945C491.918 354.945 483.892 362.971 483.892 372.871C483.892 382.771 491.918 390.796 501.818 390.796Z" fill="#FF6F61"/>
<path d="M492.614 377.296C493.595 376.37 494.711 375.599 495.925 375.01C496.113 374.927 496.272 374.79 496.382 374.617C496.493 374.443 496.55 374.241 496.547 374.036L496.642 370.551C500.068 369.533 503.728 369.631 507.095 370.832L506.999 374.316C506.997 374.518 507.047 374.718 507.145 374.895C507.244 375.071 507.386 375.22 507.56 375.324C508.776 375.958 509.879 376.791 510.82 377.789C510.921 377.896 511.042 377.982 511.176 378.042C511.311 378.103 511.456 378.136 511.603 378.14C511.75 378.144 511.897 378.119 512.035 378.067C512.172 378.014 512.298 377.935 512.405 377.834L515.251 375.134C515.465 374.93 515.591 374.649 515.599 374.353C515.607 374.057 515.498 373.77 515.296 373.554C513.575 371.738 511.514 370.278 509.23 369.259C506.946 368.239 504.483 367.68 501.983 367.612C499.482 367.545 496.993 367.97 494.657 368.865C492.321 369.759 490.184 371.105 488.368 372.826C488.261 372.927 488.176 373.049 488.116 373.183C488.056 373.318 488.024 373.463 488.02 373.61C488.016 373.757 488.042 373.904 488.095 374.041C488.148 374.179 488.227 374.304 488.329 374.411L491.023 377.257C491.125 377.363 491.246 377.449 491.381 377.509C491.516 377.569 491.661 377.601 491.808 377.605C491.955 377.609 492.102 377.583 492.239 377.53C492.376 377.477 492.502 377.398 492.609 377.296H492.614Z" fill="white"/>
<path opacity="0.1" d="M551.673 198.658C559.407 198.658 565.677 192.388 565.677 184.654C565.677 176.92 559.407 170.65 551.673 170.65C543.939 170.65 537.669 176.92 537.669 184.654C537.669 192.388 543.939 198.658 551.673 198.658Z" fill="black" stroke="#6C63FF" stroke-miterlimit="10"/>
<path d="M554.838 187.796C553.873 188.343 552.782 188.631 551.673 188.631C550.563 188.631 549.473 188.343 548.508 187.796C546.032 188.553 544.514 191.057 543.954 193.264H559.392C558.832 191.057 557.314 188.553 554.838 187.796ZM551.673 176.033C550.572 176.032 549.496 176.357 548.581 176.968C547.665 177.578 546.952 178.447 546.53 179.463C546.108 180.479 545.997 181.598 546.211 182.677C546.425 183.757 546.954 184.748 547.732 185.527C548.51 186.305 549.501 186.835 550.58 187.051C551.659 187.266 552.778 187.156 553.795 186.735C554.811 186.314 555.68 185.601 556.292 184.686C556.903 183.771 557.23 182.696 557.23 181.595C557.228 180.122 556.642 178.708 555.601 177.666C554.559 176.623 553.147 176.036 551.673 176.033ZM551.673 185.83C550.837 185.813 550.024 185.553 549.334 185.082C548.643 184.61 548.105 183.948 547.785 183.175H555.56C555.24 183.948 554.702 184.611 554.012 185.083C553.322 185.555 552.509 185.817 551.673 185.836V185.83Z" fill="white"/>
</svg>
