<svg width="170" height="338" viewBox="0 0 170 338" fill="none" xmlns="http://www.w3.org/2000/svg">
<path d="M136.925 209.649C136.925 210.654 136.925 211.659 136.861 212.653C136.711 216.52 136.247 220.368 135.471 224.16C131.636 242.925 120.563 257.512 106.653 261.82C103.887 262.682 101.005 263.122 98.1076 263.123C76.6678 263.123 59.2905 239.162 59.2905 209.649C59.2905 180.136 76.6678 156.175 98.1076 156.175C118.217 156.175 134.759 177.249 136.726 204.243C136.861 206.02 136.925 207.825 136.925 209.649Z" fill="#36334A"/>
<path opacity="0.1" d="M136.861 212.659C136.711 216.526 136.247 220.374 135.472 224.166C131.636 242.931 120.563 257.518 106.653 261.825C95.8839 256.864 87.8928 238.268 87.8928 216.083C87.8928 190.1 98.8667 169.038 112.409 169.038C123.774 169.038 133.335 183.894 136.108 204.05C136.493 206.814 136.744 209.701 136.861 212.659Z" fill="black"/>
<path d="M27.5015 134.961C27.103 134.987 26.7144 135.097 26.3607 135.282C26.007 135.468 25.696 135.726 25.4476 136.039C25.1992 136.352 25.0188 136.714 24.9182 137.101C24.8175 137.488 24.7988 137.891 24.8631 138.286C24.9185 138.616 25.0539 138.928 25.2574 139.194C25.4609 139.46 25.7263 139.672 26.0305 139.811C27.9159 140.752 40.4658 138.642 45.2231 137.801C45.9275 137.687 46.5741 137.342 47.0621 136.821C47.55 136.299 47.8517 135.631 47.9199 134.92C47.9783 134.09 47.6747 133.383 46.4606 133.383L27.5015 134.961Z" fill="#F2F2F2"/>
<path d="M114.452 224.253C117.998 224.253 120.873 219.02 120.873 212.565C120.873 206.11 117.998 200.877 114.452 200.877C110.906 200.877 108.031 206.11 108.031 212.565C108.031 219.02 110.906 224.253 114.452 224.253Z" fill="#F2F2F2"/>
<path d="M114.452 175.163C114.988 175.163 115.52 175.268 116.015 175.474C116.511 175.679 116.962 175.981 117.341 176.361C117.721 176.741 118.021 177.192 118.227 177.688C118.432 178.184 118.538 178.716 118.538 179.253V188.604C118.538 190.464 117.8 192.248 116.486 193.563C115.173 194.878 113.391 195.617 111.533 195.617C110.45 195.617 109.41 195.186 108.644 194.419C107.878 193.652 107.447 192.611 107.447 191.526V182.175C107.447 180.316 108.185 178.532 109.499 177.217C110.812 175.901 112.594 175.163 114.452 175.163Z" fill="#36334A"/>
<path d="M114.452 249.973C112.594 249.973 110.812 249.235 109.499 247.919C108.185 246.604 107.447 244.82 107.447 242.96V236.532C107.447 234.672 108.185 232.888 109.499 231.573C110.812 230.258 112.594 229.519 114.452 229.519C118.304 229.519 117.954 232.675 117.954 236.532V242.96C117.948 246.818 118.316 249.973 114.452 249.973Z" fill="#36334A"/>
<path d="M96.9402 202.046C98.798 202.046 100.58 202.784 101.893 204.1C103.207 205.415 103.945 207.199 103.945 209.059V217.825C103.945 219.065 103.453 220.254 102.577 221.131C101.701 222.008 100.514 222.5 99.2751 222.5C97.4174 222.5 95.6357 221.761 94.3221 220.446C93.0085 219.131 92.2705 217.347 92.2705 215.487V206.721C92.2705 205.481 92.7625 204.292 93.6382 203.415C94.514 202.538 95.7018 202.046 96.9402 202.046Z" fill="#36334A"/>
<path d="M136.925 209.649C136.925 210.654 136.925 211.659 136.861 212.653C136.711 216.52 136.247 220.368 135.471 224.16C135.086 224.225 134.695 224.258 134.304 224.259C132.446 224.259 130.665 223.52 129.351 222.205C128.037 220.89 127.299 219.106 127.299 217.246V210.818C127.299 208.958 128.037 207.174 129.351 205.859C130.665 204.544 132.446 203.805 134.304 203.805C134.915 203.803 135.524 203.884 136.113 204.044C136.324 204.103 136.534 204.167 136.732 204.243C136.861 206.02 136.925 207.825 136.925 209.649Z" fill="#36334A"/>
<path d="M168.717 76.5471H166.32C165.611 76.5471 165.037 77.1214 165.037 77.8298V116.168C165.037 116.876 165.611 117.451 166.32 117.451H168.717C169.426 117.451 170 116.876 170 116.168V77.8298C170 77.1214 169.426 76.5471 168.717 76.5471Z" fill="#676767"/>
<path d="M1.60208 44.4998H1.3836C0.675141 44.4998 0.10083 45.0741 0.10083 45.7826V56.6835C0.10083 57.392 0.675141 57.9663 1.3836 57.9663H1.60208C2.31054 57.9663 2.88487 57.392 2.88487 56.6835V45.7826C2.88487 45.0741 2.31054 44.4998 1.60208 44.4998Z" fill="#3A3768"/>
<path d="M1.85417 69.1584H1.28279C0.574328 69.1584 0 69.7327 0 70.4412V91.3131C0 92.0216 0.574328 92.5959 1.28279 92.5959H1.85417C2.56264 92.5959 3.13695 92.0216 3.13695 91.3131V70.4412C3.13695 69.7327 2.56264 69.1584 1.85417 69.1584Z" fill="#3A3768"/>
<path d="M1.75344 100.797H1.33331C0.624848 100.797 0.0505371 101.371 0.0505371 102.08V123.153C0.0505371 123.862 0.624848 124.436 1.33331 124.436H1.75344C2.4619 124.436 3.03623 123.862 3.03623 123.153V102.08C3.03623 101.371 2.4619 100.797 1.75344 100.797Z" fill="#3A3768"/>
<path d="M145.873 0H23.5214C11.459 0 1.68042 9.77854 1.68042 21.841V315.599C1.68042 327.661 11.459 337.44 23.5214 337.44H145.873C157.936 337.44 167.714 327.661 167.714 315.599V21.841C167.714 9.77854 157.936 0 145.873 0Z" fill="#505050"/>
<path d="M89.6999 10.0774H70.8502C69.653 10.0774 68.6824 11.048 68.6824 12.2453V12.615C68.6824 13.8123 69.653 14.7829 70.8502 14.7829H89.6999C90.8972 14.7829 91.8678 13.8123 91.8678 12.615V12.2453C91.8678 11.048 90.8972 10.0774 89.6999 10.0774Z" fill="#E6E8EC"/>
<path d="M98.0406 15.1022C99.5163 15.1022 100.713 13.9059 100.713 12.4302C100.713 10.9544 99.5163 9.75815 98.0406 9.75815C96.5649 9.75815 95.3687 10.9544 95.3687 12.4302C95.3687 13.9059 96.5649 15.1022 98.0406 15.1022Z" fill="#E6E8EC"/>
<path d="M144.255 8.78905H125.265V11.0801C125.265 13.9593 124.121 16.7206 122.085 18.7565C120.049 20.7924 117.288 21.9362 114.409 21.9362H53.8099C50.9306 21.9362 48.1694 20.7924 46.1334 18.7565C44.0975 16.7206 42.9538 13.9593 42.9538 11.0801V8.78905H25.118C23.3866 8.78905 21.6722 9.13016 20.0727 9.79291C18.4731 10.4557 17.0199 11.427 15.7958 12.6516C14.5718 13.8761 13.601 15.3298 12.939 16.9296C12.2769 18.5295 11.9365 20.244 11.9373 21.9754V315.465C11.9365 317.196 12.2769 318.911 12.939 320.51C13.601 322.11 14.5718 323.564 15.7958 324.788C17.0199 326.013 18.4731 326.984 20.0727 327.647C21.6722 328.31 23.3866 328.651 25.118 328.651H144.255C147.752 328.651 151.106 327.262 153.579 324.789C156.052 322.316 157.441 318.962 157.441 315.465V21.9754C157.441 18.4782 156.052 15.1242 153.579 12.6513C151.106 10.1783 147.752 8.78905 144.255 8.78905Z" fill="#404040"/>
<path opacity="0.1" d="M101.503 61.4505H18.0376V74.8946H101.503V61.4505Z" fill="black" stroke="#6C63FF" stroke-miterlimit="10"/>
<path opacity="0.1" d="M38.2035 153.318C48.1034 153.318 56.1289 145.293 56.1289 135.393C56.1289 125.493 48.1034 117.467 38.2035 117.467C28.3036 117.467 20.2781 125.493 20.2781 135.393C20.2781 145.293 28.3036 153.318 38.2035 153.318Z" fill="black" stroke="#6C63FF" stroke-miterlimit="10"/>
<path d="M33.1621 132.032V138.754H37.6435L43.2451 144.608V126.172L37.6435 132.032H33.1621Z" fill="white"/>
<path opacity="0.1" d="M85.818 153.318C95.7179 153.318 103.743 145.293 103.743 135.393C103.743 125.493 95.7179 117.467 85.818 117.467C75.9181 117.467 67.8926 125.493 67.8926 135.393C67.8926 145.293 75.9181 153.318 85.818 153.318Z" fill="black" stroke="#6C63FF" stroke-miterlimit="10"/>
<path d="M85.8178 142.877C85.3941 142.874 84.9793 142.998 84.6259 143.232C84.2725 143.466 83.9965 143.799 83.8328 144.19C83.6691 144.581 83.6252 145.011 83.7065 145.427C83.7877 145.843 83.9907 146.225 84.2895 146.526C84.5883 146.826 84.9695 147.031 85.3849 147.114C85.8003 147.198 86.2312 147.156 86.6228 146.994C87.0145 146.833 87.3493 146.559 87.585 146.206C87.8206 145.854 87.9464 145.44 87.9464 145.016C87.9464 144.451 87.7225 143.908 87.3236 143.507C86.9247 143.106 86.3833 142.88 85.8178 142.877ZM79.5439 123.629C79.1199 123.626 78.7046 123.749 78.3505 123.982C77.9964 124.215 77.7195 124.548 77.555 124.939C77.3904 125.329 77.3456 125.76 77.4263 126.176C77.507 126.592 77.7094 126.975 78.008 127.276C78.3066 127.577 78.6878 127.783 79.1034 127.867C79.5189 127.95 79.95 127.909 80.342 127.748C80.734 127.586 81.0692 127.312 81.3051 126.96C81.541 126.607 81.6669 126.193 81.6669 125.769C81.6669 125.204 81.4438 124.663 81.0461 124.262C80.6485 123.861 80.1085 123.634 79.5439 123.629ZM79.5439 130.049C79.1197 130.045 78.7041 130.168 78.3499 130.402C77.9957 130.635 77.7188 130.968 77.5544 131.359C77.3901 131.75 77.3456 132.181 77.4267 132.598C77.5078 133.014 77.7108 133.397 78.01 133.698C78.3091 133.998 78.6909 134.203 79.1068 134.287C79.5227 134.37 79.954 134.328 80.3459 134.166C80.7378 134.003 81.0726 133.728 81.3078 133.375C81.543 133.022 81.668 132.607 81.6669 132.183C81.6669 131.619 81.4436 131.078 81.0458 130.678C80.6479 130.278 80.1079 130.052 79.5439 130.049ZM79.5439 136.463C79.1199 136.459 78.7046 136.582 78.3505 136.815C77.9964 137.048 77.7195 137.381 77.555 137.772C77.3904 138.163 77.3456 138.593 77.4263 139.01C77.507 139.426 77.7094 139.809 78.008 140.11C78.3066 140.411 78.6878 140.616 79.1034 140.7C79.5189 140.784 79.95 140.743 80.342 140.581C80.734 140.42 81.0692 140.145 81.3051 139.793C81.541 139.441 81.6669 139.026 81.6669 138.603C81.6669 138.038 81.4438 137.496 81.0461 137.095C80.6485 136.695 80.1085 136.467 79.5439 136.463ZM92.0916 127.909C92.5153 127.911 92.9301 127.788 93.2835 127.554C93.6369 127.32 93.9129 126.987 94.0766 126.596C94.2403 126.205 94.2842 125.774 94.2029 125.359C94.1217 124.943 93.9187 124.56 93.6199 124.26C93.3211 123.96 92.9399 123.755 92.5245 123.671C92.1091 123.588 91.6782 123.629 91.2866 123.791C90.8949 123.953 90.5601 124.227 90.3244 124.579C90.0888 124.931 89.963 125.345 89.963 125.769C89.9623 126.049 90.0168 126.327 90.1233 126.586C90.2299 126.845 90.3865 127.081 90.5841 127.28C90.7818 127.479 91.0167 127.636 91.2753 127.744C91.534 127.852 91.8114 127.908 92.0916 127.909ZM85.8178 136.463C85.3941 136.46 84.9793 136.584 84.6259 136.818C84.2725 137.052 83.9965 137.385 83.8328 137.776C83.6691 138.167 83.6252 138.597 83.7065 139.013C83.7877 139.429 83.9907 139.811 84.2895 140.112C84.5883 140.412 84.9695 140.617 85.3849 140.7C85.8003 140.784 86.2312 140.742 86.6228 140.581C87.0145 140.419 87.3493 140.145 87.585 139.793C87.8206 139.44 87.9464 139.026 87.9464 138.603C87.9464 138.037 87.7225 137.494 87.3236 137.093C86.9247 136.692 86.3833 136.466 85.8178 136.463ZM92.0916 136.463C91.668 136.46 91.2532 136.584 90.8998 136.818C90.5464 137.052 90.2704 137.385 90.1067 137.776C89.943 138.167 89.8991 138.597 89.9803 139.013C90.0616 139.429 90.2646 139.811 90.5634 140.112C90.8622 140.412 91.2434 140.617 91.6588 140.7C92.0742 140.784 92.5051 140.742 92.8967 140.581C93.2884 140.419 93.6232 140.145 93.8589 139.793C94.0945 139.44 94.2203 139.026 94.2203 138.603C94.2203 138.037 93.9964 137.494 93.5975 137.093C93.1986 136.692 92.6572 136.466 92.0916 136.463ZM92.0916 130.049C91.6677 130.047 91.2527 130.17 90.8992 130.404C90.5457 130.638 90.2697 130.972 90.1062 131.363C89.9427 131.754 89.899 132.185 89.9808 132.601C90.0625 133.017 90.266 133.4 90.5654 133.7C90.8647 134 91.2465 134.204 91.6623 134.287C92.0781 134.37 92.5091 134.328 92.9006 134.165C93.2922 134.003 93.6266 133.727 93.8616 133.375C94.0965 133.022 94.2214 132.607 94.2203 132.183C94.2203 131.618 93.9962 131.076 93.5972 130.676C93.1981 130.276 92.6567 130.05 92.0916 130.049ZM85.8178 130.049C85.3938 130.047 84.9788 130.17 84.6253 130.404C84.2718 130.638 83.9958 130.972 83.8323 131.363C83.6688 131.754 83.6251 132.185 83.7069 132.601C83.7886 133.017 83.9921 133.4 84.2915 133.7C84.5908 134 84.9726 134.204 85.3884 134.287C85.8042 134.37 86.2352 134.328 86.6267 134.165C87.0183 134.003 87.3527 133.727 87.5877 133.375C87.8227 133.022 87.9475 132.607 87.9464 132.183C87.9464 131.618 87.7223 131.076 87.3233 130.676C86.9242 130.276 86.3828 130.05 85.8178 130.049ZM85.8178 123.629C85.3941 123.627 84.9793 123.751 84.6259 123.984C84.2725 124.218 83.9965 124.552 83.8328 124.942C83.6691 125.333 83.6252 125.764 83.7065 126.18C83.7877 126.595 83.9907 126.978 84.2895 127.278C84.5883 127.579 84.9695 127.783 85.3849 127.867C85.8003 127.95 86.2312 127.909 86.6228 127.747C87.0145 127.585 87.3493 127.311 87.585 126.959C87.8206 126.607 87.9464 126.193 87.9464 125.769C87.9464 125.204 87.7225 124.661 87.3236 124.26C86.9247 123.859 86.3833 123.632 85.8178 123.629Z" fill="white"/>
<g opacity="0.4">
<path opacity="0.1" d="M38.2035 207.094C48.1034 207.094 56.1289 199.069 56.1289 189.169C56.1289 179.269 48.1034 171.244 38.2035 171.244C28.3036 171.244 20.2781 179.269 20.2781 189.169C20.2781 199.069 28.3036 207.094 38.2035 207.094Z" fill="black" stroke="#6C63FF" stroke-miterlimit="10"/>
<path opacity="0.4" d="M46.6061 190.289H39.3239V197.572H37.0832V190.289H29.801V188.049H37.0832V180.766H39.3239V188.049H46.6061V190.289Z" fill="white"/>
</g>
<path opacity="0.1" d="M133.432 153.318C143.332 153.318 151.358 145.293 151.358 135.393C151.358 125.493 143.332 117.467 133.432 117.467C123.532 117.467 115.507 125.493 115.507 135.393C115.507 145.293 123.532 153.318 133.432 153.318Z" fill="black" stroke="#6C63FF" stroke-miterlimit="10"/>
<path d="M133.432 124.464C132.09 124.481 130.765 124.763 129.532 125.293C128.299 125.823 127.183 126.59 126.246 127.551C125.31 128.513 124.572 129.649 124.075 130.895C123.578 132.142 123.331 133.474 123.349 134.816V142.865C123.343 143.313 123.425 143.757 123.591 144.172C123.757 144.588 124.003 144.967 124.315 145.287C124.627 145.607 124.999 145.863 125.41 146.04C125.821 146.216 126.263 146.31 126.71 146.316H130.071V137.068H125.59V134.827C125.59 132.747 126.416 130.752 127.887 129.282C129.357 127.811 131.352 126.985 133.432 126.985C135.512 126.985 137.507 127.811 138.977 129.282C140.448 130.752 141.274 132.747 141.274 134.827V137.068H136.793V146.31H140.154C140.602 146.305 141.044 146.212 141.455 146.036C141.866 145.859 142.239 145.604 142.551 145.283C142.863 144.962 143.109 144.583 143.275 144.167C143.44 143.752 143.522 143.307 143.515 142.86V134.816C143.533 133.474 143.286 132.142 142.789 130.895C142.292 129.649 141.554 128.513 140.618 127.551C139.682 126.59 138.565 125.823 137.332 125.293C136.099 124.763 134.774 124.481 133.432 124.464Z" fill="white"/>
<g opacity="0.4">
<path opacity="0.1" d="M85.818 207.094C95.7179 207.094 103.743 199.069 103.743 189.169C103.743 179.269 95.7179 171.244 85.818 171.244C75.9181 171.244 67.8926 179.269 67.8926 189.169C67.8926 199.069 75.9181 207.094 85.818 207.094Z" fill="black" stroke="#6C63FF" stroke-miterlimit="10"/>
<path opacity="0.4" d="M92.54 187.248V182.766C92.5378 182.596 92.5022 182.428 92.4351 182.272C92.368 182.116 92.2709 181.975 92.1491 181.856C92.0274 181.738 91.8835 181.644 91.7257 181.581C91.5679 181.518 91.3992 181.487 91.2292 181.489H75.354C75.0118 181.486 74.6823 181.619 74.4377 181.858C74.1931 182.098 74.0533 182.424 74.0488 182.766V195.544C74.0547 195.885 74.195 196.211 74.4393 196.45C74.6836 196.689 75.0122 196.822 75.354 196.821H91.2236C91.5664 196.824 91.8964 196.691 92.1419 196.452C92.3874 196.213 92.5285 195.886 92.5344 195.544V191.062L97.5759 196.171V182.139L92.54 187.248Z" fill="white"/>
</g>
<path opacity="0.1" d="M133.432 207.094C143.332 207.094 151.358 199.069 151.358 189.169C151.358 179.269 143.332 171.244 133.432 171.244C123.532 171.244 115.507 179.269 115.507 189.169C115.507 199.069 123.532 207.094 133.432 207.094Z" fill="black" stroke="#6C63FF" stroke-miterlimit="10"/>
<path d="M132.547 193.785C131.583 194.332 130.494 194.619 129.385 194.619C128.277 194.619 127.187 194.332 126.223 193.785C123.747 194.541 122.229 197.045 121.669 199.246H137.101C136.541 197.045 135.029 194.541 132.547 193.785ZM129.388 182.021C128.287 182.02 127.211 182.346 126.295 182.956C125.38 183.567 124.666 184.436 124.244 185.452C123.823 186.469 123.712 187.588 123.926 188.668C124.141 189.747 124.671 190.739 125.449 191.517C126.227 192.295 127.219 192.825 128.298 193.04C129.378 193.254 130.497 193.143 131.513 192.722C132.53 192.3 133.399 191.586 134.01 190.671C134.62 189.755 134.946 188.679 134.945 187.578C134.945 186.104 134.359 184.691 133.317 183.649C132.275 182.607 130.862 182.021 129.388 182.021ZM129.388 191.813C128.552 191.797 127.738 191.538 127.047 191.066C126.357 190.594 125.819 189.931 125.5 189.158H133.27C132.952 189.931 132.416 190.595 131.726 191.068C131.037 191.541 130.224 191.802 129.388 191.819V191.813Z" fill="white"/>
<path d="M136.928 195.885H145.196C144.938 194.723 144.383 193.647 143.584 192.763C142.786 191.879 141.772 191.218 140.641 190.844C139.676 191.391 138.586 191.678 137.476 191.679C136.732 191.685 135.992 191.56 135.292 191.309C134.902 191.994 134.406 192.614 133.824 193.146C135.106 193.733 136.186 194.686 136.928 195.885ZM136.087 186.223H141.364C141.044 186.994 140.505 187.655 139.815 188.124C139.124 188.594 138.311 188.852 137.476 188.867C137.022 188.863 136.571 188.784 136.143 188.631C136.074 189.08 135.96 189.522 135.802 189.948C136.567 190.192 137.376 190.267 138.173 190.169C138.97 190.071 139.737 189.801 140.42 189.378C141.103 188.956 141.686 188.39 142.13 187.72C142.574 187.051 142.867 186.293 142.99 185.499C143.112 184.705 143.062 183.894 142.841 183.122C142.621 182.349 142.236 181.634 141.712 181.024C141.189 180.415 140.54 179.926 139.81 179.592C139.079 179.257 138.285 179.084 137.482 179.086C136.547 179.087 135.627 179.324 134.808 179.774C133.989 180.225 133.296 180.874 132.793 181.663C133.633 182.147 134.361 182.804 134.929 183.59C135.497 184.376 135.892 185.273 136.087 186.223Z" fill="white"/>
<path d="M85.818 278.796C95.7179 278.796 103.743 270.771 103.743 260.871C103.743 250.971 95.7179 242.945 85.818 242.945C75.9181 242.945 67.8926 250.971 67.8926 260.871C67.8926 270.771 75.9181 278.796 85.818 278.796Z" fill="#FF6F61"/>
<path d="M76.6143 265.296C77.5948 264.37 78.7113 263.599 79.9249 263.01C80.1127 262.927 80.2719 262.79 80.3824 262.617C80.493 262.443 80.5501 262.241 80.5467 262.036L80.6419 258.551C84.0676 257.533 87.7284 257.631 91.0946 258.832L90.9994 262.316C90.9967 262.518 91.047 262.718 91.1452 262.895C91.2435 263.071 91.3864 263.22 91.5596 263.324C92.7765 263.958 93.8785 264.791 94.8198 265.789C94.9208 265.896 95.0421 265.982 95.1765 266.042C95.3109 266.103 95.4559 266.136 95.6031 266.14C95.7504 266.144 95.897 266.119 96.0346 266.067C96.1722 266.014 96.2981 265.935 96.4051 265.834L99.2507 263.134C99.4654 262.93 99.5907 262.649 99.5991 262.353C99.6075 262.057 99.4983 261.77 99.2955 261.554C97.5754 259.738 95.5143 258.278 93.2301 257.259C90.9459 256.239 88.4832 255.68 85.9827 255.612C83.4822 255.545 80.9929 255.97 78.6569 256.865C76.3209 257.759 74.184 259.105 72.3682 260.826C72.2614 260.927 72.1757 261.049 72.1159 261.183C72.0562 261.318 72.0235 261.463 72.0199 261.61C72.0162 261.757 72.0417 261.904 72.0947 262.041C72.1478 262.179 72.2274 262.304 72.329 262.411L75.0234 265.257C75.1248 265.363 75.2464 265.449 75.381 265.509C75.5156 265.569 75.6607 265.601 75.8079 265.605C75.9552 265.609 76.1017 265.583 76.2391 265.53C76.3765 265.477 76.5021 265.398 76.6087 265.296H76.6143Z" fill="white"/>
<path opacity="0.1" d="M135.673 86.6581C143.407 86.6581 149.677 80.3882 149.677 72.6539C149.677 64.9196 143.407 58.6497 135.673 58.6497C127.939 58.6497 121.669 64.9196 121.669 72.6539C121.669 80.3882 127.939 86.6581 135.673 86.6581Z" fill="black" stroke="#6C63FF" stroke-miterlimit="10"/>
<path d="M138.838 75.7964C137.873 76.3434 136.782 76.6309 135.673 76.6309C134.564 76.6309 133.473 76.3434 132.508 75.7964C130.032 76.5527 128.514 79.0566 127.954 81.2637H143.392C142.832 79.0566 141.314 76.5527 138.838 75.7964ZM135.673 64.0329C134.573 64.0318 133.497 64.3571 132.581 64.9676C131.666 65.5782 130.952 66.4465 130.53 67.4628C130.108 68.4791 129.997 69.5977 130.211 70.6771C130.425 71.7565 130.954 72.7482 131.732 73.5267C132.51 74.3051 133.501 74.8355 134.58 75.0506C135.659 75.2656 136.778 75.1558 137.795 74.735C138.811 74.3141 139.681 73.6012 140.292 72.6863C140.903 71.7714 141.23 70.6958 141.23 69.5954C141.228 68.1215 140.643 66.7084 139.601 65.6657C138.559 64.623 137.147 64.0359 135.673 64.0329ZM135.673 73.8302C134.837 73.8133 134.024 73.5531 133.334 73.0816C132.643 72.61 132.105 71.9475 131.785 71.1751H139.561C139.24 71.9477 138.702 72.6106 138.012 73.0831C137.322 73.5555 136.509 73.817 135.673 73.8359V73.8302Z" fill="white"/>
</svg>
