<svg width="573" height="409" viewBox="0 0 573 409" fill="none" xmlns="http://www.w3.org/2000/svg">
<g clip-path="url(#clip0)">
<path d="M446.022 185.475C444.951 182.725 446.481 181.35 447.094 178.905C447.706 176.46 445.716 168.82 445.716 168.82C445.716 168.82 439.287 142.387 437.297 137.192C436.455 134.994 434.626 133.481 432.797 132.466C432.673 131.791 432.493 131.357 432.246 131.233C430.473 130.348 426.056 128.425 423.112 127.893C422.562 126.949 421.909 126.068 421.166 125.266C421.683 124.276 421.922 123.165 421.86 122.05C421.672 119.167 419.485 116.584 419.769 113.709C419.985 111.529 421.582 109.738 422.198 107.635C422.457 106.691 422.518 105.703 422.378 104.734C422.238 103.765 421.9 102.836 421.385 102.002C421.838 102.483 422.291 102.964 422.743 103.445C423.359 102.523 423.656 101.426 423.587 100.32C423.519 99.2145 423.09 98.1617 422.365 97.3229C420.931 95.7419 418.533 95.149 417.421 93.3283C416.278 91.4575 416.892 88.9153 415.811 87.008C413.163 82.3356 406.384 85.6478 402.324 84.017C400.656 83.3468 399.387 82.6092 397.51 82.6622C395.914 82.7536 394.336 83.0477 392.814 83.5375C390.632 84.168 388.732 85.5274 387.433 87.3882C387.561 87.2425 387.701 87.1083 387.853 86.9871C388.837 86.2175 390.562 86.2816 391.082 87.4164C391.206 87.7016 391.258 88.0129 391.233 88.3229C391.148 89.6909 389.951 90.7126 388.761 91.3972C387.572 92.0818 386.233 92.6546 385.457 93.7852C384.175 95.6509 384.929 98.1548 384.929 100.417C384.919 101.855 384.585 103.271 383.954 104.563C383.322 105.855 382.408 106.989 381.279 107.882L385.599 106.12C383.536 109.723 382.182 113.686 381.61 117.796L387.45 112.98C385.287 116.416 383.972 120.316 383.614 124.359L388.302 119.564C388.515 119.939 388.622 120.364 388.611 120.795L388.122 122.677C387.949 123.051 387.758 123.415 387.549 123.769C386.794 125.062 386.014 126.654 386.72 127.974L386.723 127.972C385.981 130.466 384.86 132.962 382.368 134.174C385.132 134.463 388.017 133.084 389.266 130.888C389.469 131.283 389.715 131.655 389.999 131.997C390.079 132.097 390.158 132.197 390.238 132.296L389.549 132.755L387.703 133.983C387.703 133.983 375.61 136.428 376.376 141.012C376.407 141.2 376.445 141.425 376.487 141.678L373.008 147.582L367.957 164.695C367.957 164.695 365.355 170.196 365.814 172.487C366.273 174.779 365.814 175.696 365.814 179.822C365.814 183.947 363.824 185.628 365.814 188.989C367.804 192.351 373.774 202.13 373.774 202.13L375.085 203.111C375.021 203.701 375.043 204.297 375.151 204.88C376.376 210.992 387.856 269.512 387.856 269.512C387.856 269.512 382.039 315.808 393.826 318.711C395.304 319.076 396.756 319.406 398.166 319.7L399.948 331.393L398.877 346.214C398.877 346.214 390.764 364.55 405.612 365.619C420.46 366.689 413.725 349.729 413.725 349.729C414.508 348.28 414.829 346.627 414.643 344.992C414.492 343.632 413.217 336.554 411.967 329.746C417.602 329.072 416.548 323.102 415.797 320.478C416.122 320.289 416.365 319.986 416.48 319.628C416.649 319.019 416.254 316.621 415.538 313.261C414.954 309.921 413.957 304.513 413.277 300.851L416.939 301.446L432.399 210.992C432.399 210.992 432.501 209.552 432.454 207.445C434.568 206.354 436.748 205.395 438.981 204.574C444.032 202.588 446.022 195.254 447.706 192.198C449.39 189.142 447.094 188.225 446.022 185.475ZM391.131 127.883C391.631 127.538 392.217 127.34 392.824 127.309C392.693 128.02 391.469 128.228 390.442 128.6C390.631 128.325 390.863 128.082 391.131 127.883ZM383.417 173.404C384.657 175.438 382.412 180.949 380.388 185.322C379.229 184.325 378.019 184.64 379.437 181.808C380.404 180.014 380.978 178.034 381.121 176.002C381.121 175.652 381.3 173.085 382.809 172.019C382.967 172.499 383.171 172.963 383.417 173.404ZM378.771 190.957C379.473 190.672 380.536 190.234 381.971 189.747C381.283 190.648 380.498 191.721 379.709 192.893C379.411 192.667 379.17 192.374 379.007 192.037C378.844 191.701 378.764 191.331 378.771 190.957ZM428.419 192.962C427.489 191.975 426.737 191.092 426.118 190.302C427.272 190.605 428.448 190.932 429.644 191.281C430.24 191.37 430.848 191.33 431.427 191.163C431.48 192.219 431.481 193.726 431.481 193.726L429.804 194.884C429.422 194.19 428.957 193.545 428.419 192.962V192.962ZM433.169 187.663C433.152 187.678 433.132 187.696 433.114 187.713C433.032 187.108 432.895 186.513 432.705 185.933C431.702 182.775 431.166 177.172 430.881 172.39L433.777 182.114C433.777 182.114 433.93 187.003 433.169 187.663Z" fill="#D0CDE1"/>
<path d="M373.711 147.502C373.711 147.502 358.007 120.56 357.516 117.62C357.025 114.681 349.173 109.293 349.173 109.293C346.491 106.615 342.089 105.767 337.457 105.811C339.201 104.371 332.973 103.403 332.488 102.435C331.997 101.455 330.525 101.455 328.562 99.9852C326.599 98.5157 321.7 99.7402 321.699 99.7403C320.962 98.1933 320.449 96.5495 320.177 94.8582C322.268 92.3884 323.413 89.258 323.409 86.0241C323.409 85.989 323.407 85.9544 323.407 85.9192C323.531 86.1133 323.656 86.3086 323.781 86.5098C324.701 81.013 326.323 76.4439 323.231 71.4297C321.038 67.8758 317.606 65.2569 313.596 64.0772L310.65 66.4296L311.795 63.6858C310.832 63.5391 309.857 63.4829 308.884 63.5178L306.233 66.9194L307.33 63.6343C305.03 63.9196 302.815 64.6775 300.823 65.8602C298.831 67.0428 297.106 68.6246 295.757 70.5058C292.384 75.3612 292.61 82.1105 295.927 87.0039C295.939 86.9696 295.947 86.9361 295.958 86.9018C296.105 89.191 296.824 91.407 298.051 93.3468C299.278 95.2865 300.972 96.8881 302.979 98.0049L303.813 104.66C303.063 105.356 302.1 105.779 301.08 105.864C299.608 105.864 298.136 109.783 298.136 109.783C298.136 109.783 297.301 110.203 296.402 112.187C294.085 113.761 287.019 118.707 284.397 122.162C282.846 122.924 281.18 124.619 281.45 128.397C281.941 135.256 281.45 167.097 281.45 167.097C281.45 167.097 277.034 194.039 278.506 195.999C279.978 197.958 278.015 204.326 278.015 204.326L279.487 204.653V206.286C279.487 206.286 275.059 226.776 281.941 225.88C293.228 224.411 284.886 207.755 284.886 207.755V205.85L286.849 206.286C286.849 206.286 287.83 199.428 289.793 198.938C290.476 198.768 291.277 196.936 292.032 194.622C292.473 198.233 292.738 200.408 292.738 200.408L295.808 199.726L296.664 202.857C296.875 202.975 297.095 203.075 297.323 203.155L296.664 206.776C296.664 206.776 296.173 210.695 296.664 213.144C296.911 214.379 306.021 240.782 314.991 266.653L314.821 272.907C314.821 272.907 310.404 277.806 311.386 281.235C312.368 284.664 308.932 313.076 308.932 313.076L305.988 327.282L306.729 327.51L306.049 329.999C305.463 330.294 304.942 330.703 304.516 331.201C300.59 335.61 295.682 348.347 295.682 348.347C295.682 348.347 286.849 361.573 300.59 361.083C314.33 360.593 315.312 355.695 315.312 355.695C315.312 355.695 317.275 342.958 317.275 342.468C317.275 341.978 316.293 336.943 316.293 336.943L315.912 336.523L316.178 330.412L318.747 331.201C318.747 331.201 321.201 318.465 323.164 316.995C323.85 316.482 325.675 310.76 327.759 303.411C329.889 309.534 331.952 330.703 332.621 332.625C332.384 332.948 332.175 333.291 331.997 333.651C329.791 337.876 327.333 341.966 324.636 345.897C324.636 345.897 308.932 355.205 324.636 357.654C324.636 357.654 333.47 358.144 337.886 355.205C342.303 352.265 354.081 347.857 354.081 346.877C354.081 345.897 351.136 331.495 348.192 333.063L346.219 328.534L348.192 327.772L335.768 272.104C336.061 270.918 336.277 269.713 336.414 268.499C336.414 265.933 342.768 215.983 344.385 203.313C351.502 205.326 358.007 190.61 358.007 190.61L359.62 187.712L361.933 189.141C361.933 189.141 363.896 184.242 366.84 183.752C369.785 183.262 375.183 157.299 375.183 153.87C375.138 151.669 374.637 149.501 373.711 147.502ZM350.846 185.882C350.363 185.117 349.803 184.403 349.173 183.752C350.456 180.416 351.442 176.974 352.118 173.465C353.099 168.076 350.646 150.441 350.646 150.441L350.603 149.244C353.011 152.4 356.044 156.608 356.044 157.789C356.044 158.36 356.177 158.922 356.432 159.432C356.688 159.942 357.059 160.386 357.516 160.728L354.572 171.016C354.572 171.016 352.609 175.914 352.118 178.364C351.824 179.816 351.66 181.291 351.627 182.772L352.323 183.202L350.846 185.882Z" fill="#D0CDE1"/>
<path d="M149.045 156.569L151.664 155.981L140.867 125.609L117.557 117.037C117.557 117.037 117.468 117.136 117.303 117.306C115.314 115.385 114.471 112.598 114.118 110.404C115.993 109.648 117.677 108.489 119.051 107.008C120.425 105.527 121.454 103.762 122.066 101.839C122.678 99.9154 122.856 97.8809 122.59 95.8804C122.323 93.88 121.617 91.963 120.522 90.2662C122.443 89.806 123.129 88.0666 123.774 85.9924C123.374 85.8748 122.967 85.7863 122.555 85.7276C122.857 85.0515 123.16 84.3753 123.462 83.6992C122.931 83.6516 122.4 83.604 121.869 83.5564C122.005 82.9244 122.14 82.2923 122.276 81.6602C121.599 82.1267 120.922 82.5933 120.245 83.0598C120.475 82.3962 120.532 81.6852 120.411 80.9935C120.29 80.3018 119.995 79.6522 119.553 79.1057C118.654 78.0212 117.482 77.1959 116.157 76.7148C113.565 75.697 110.742 75.4117 107.999 75.8903C105.255 76.369 102.697 77.593 100.605 79.428L100.458 78.8572C96.3147 82.0364 93.6037 86.7259 92.9193 91.8975C92.2693 97.0094 94.7294 102.214 97.9271 106.26C97.9002 106.083 97.8713 105.907 97.842 105.731C97.9801 105.921 98.1229 106.108 98.2702 106.29L98.6632 121.201L97.6788 122.043C97.6772 122.044 81.1612 129.502 80.5174 138.411L80.5155 138.418C79.5242 142.755 79.0334 165.288 79.0334 165.288H80.3924L79.0334 174.106L70.2 208.397C70.2 208.397 58.9128 223.092 68.7277 226.032C74.8268 227.858 76.5669 220.795 77.0106 215.184C77.364 216.575 78.4209 217.515 80.5056 217.704C80.6697 217.719 80.8449 217.731 81.0143 217.745C76.3735 229.717 79.5241 268.65 79.5241 268.65C77.0704 273.549 106.024 307.349 106.024 307.349L107.768 306.421L108.145 307.174C107.175 307.267 106.515 307.349 106.515 307.349V322.535C106.515 322.535 102.098 337.721 107.987 340.66C109.511 341.42 111.101 340.867 112.62 339.632C112.329 344.318 111.913 351.312 111.913 352.907C111.913 355.356 118.293 359.765 118.293 359.765C118.293 359.765 119.765 365.153 131.543 365.153C143.321 365.153 134.488 350.947 134.488 350.947L128.108 336.741C128.108 336.741 127.631 336.974 126.186 335.8L126.703 330.119L129.58 330.373L133.506 273.059C133.506 273.059 136.941 222.113 137.432 214.275C137.547 211.762 137.488 209.244 137.255 206.74L151.664 177.045L149.045 156.569ZM138.414 175.576L136.941 180.697V169.371L138.414 175.576ZM77.1475 211.903C77.1597 210.108 77.0704 208.886 77.0704 208.886L86.6645 189.733L86.3946 195.66C86.3946 195.66 78.7109 205.362 77.1475 211.903ZM99.6447 267.18L108.969 234.359L114.367 274.038L113.98 288.464C113.323 287.138 112.795 285.752 112.404 284.325C110.932 278.447 99.6447 267.18 99.6447 267.18Z" fill="#D0CDE1"/>
<path d="M232.447 345.145C227.849 343.255 218.923 339.205 217.841 337.045C216.759 334.886 211.35 318.146 211.35 318.146L209.957 318.247C209.777 310.643 209.01 281.171 207.834 277.647C207.834 277.647 213.514 230.939 202.154 212.31L200.107 204.055C200.779 200.746 200.692 193.084 200.26 191.79C199.719 190.17 206.481 185.041 204.588 181.801C202.695 178.561 197.556 167.491 197.556 167.491C197.556 167.491 198.097 160.471 190.794 153.992C190.794 153.992 188.66 141.931 179.043 141.752C177.743 139.487 175.923 135.886 176.458 134.282C177.032 132.565 179.224 127.213 180.462 124.218C181.119 123.921 181.751 123.57 182.35 123.169C189.998 119.748 195.39 111.525 195.39 101.919C195.39 91.6358 189.214 82.9333 180.702 80.0151C181.081 79.0176 181.236 77.9492 181.156 76.8853C181.076 75.8215 180.763 74.7881 180.239 73.8583C179.715 72.9284 178.993 72.1248 178.124 71.5042C177.254 70.8835 176.259 70.461 175.208 70.2665C174.157 70.072 173.076 70.1101 172.042 70.3784C171.008 70.6466 170.045 71.1383 169.222 71.8187C168.398 72.4991 167.735 73.3517 167.278 74.3162C166.821 75.2807 166.582 76.3335 166.578 77.4004C166.11 76.2929 165.924 75.0869 166.036 73.8901C166.149 72.6933 166.556 71.543 167.223 70.5418C167.889 69.5406 168.794 68.7197 169.855 68.1523C170.917 67.585 172.103 67.289 173.307 67.2906C173.781 67.2912 174.254 67.3378 174.719 67.4295C173.115 66.6683 171.289 66.5168 169.581 67.0036C167.874 67.4904 166.403 68.5819 165.444 70.0737C164.485 71.5655 164.104 73.3551 164.373 75.1072C164.641 76.8593 165.54 78.4536 166.902 79.5914C166.986 79.858 167.085 80.1195 167.2 80.3746C159.191 83.6007 153.477 92.0289 153.477 101.919C153.477 111.093 158.394 119.006 165.499 122.68C165.461 125.664 164.719 130.695 160.596 133.761C158.467 132.79 155.511 131.724 153.615 132.207C152.634 131.444 151.154 131.192 149.14 133.202C145.083 137.252 141.567 147.782 141.567 154.262C141.567 160.741 142.378 198.27 142.378 198.27C142.378 198.27 138.051 199.89 141.026 202.32C141.64 202.831 142.411 203.117 143.211 203.131L146.165 224.999C146.165 224.999 144.272 246.059 151.575 246.329C152.147 246.36 152.716 246.22 153.209 245.928L147.788 270.358C147.788 270.358 135.346 278.457 125.609 294.387C120.594 302.592 118.093 307.639 116.844 310.611L115.06 309.506L108.839 321.386C108.839 321.386 95.0448 329.756 98.0201 335.966C100.995 342.175 103.7 343.795 103.7 343.795L105.593 342.985L109.11 349.465C109.11 349.465 118.306 362.695 133.182 355.945C133.88 355.008 134.257 353.872 134.257 352.705C134.257 351.538 133.88 350.402 133.182 349.465C130.748 345.955 124.527 338.395 124.527 338.395L128.584 317.876L127.744 317.357L153.468 286.287C153.468 286.287 161.041 281.697 163.746 277.648C166.451 273.598 183.22 231.749 183.22 231.749L192.687 275.488C192.687 275.488 192.146 291.417 194.58 301.677C195.907 307.432 196.772 313.283 197.168 319.176L196.474 319.226L198.097 331.376C198.097 331.376 191.064 348.655 195.933 350.005C199.396 350.898 202.923 351.53 206.481 351.895L207.022 350.005C207.022 350.005 227.849 361.345 235.422 352.975C235.422 352.975 237.045 347.035 232.447 345.145ZM158.336 212.58C159.148 213.39 158.877 217.169 158.877 217.169L157.254 227.699L155.634 235.003C155.41 231.552 154.957 228.12 154.279 224.729L153.53 204.55C153.678 204.643 153.839 204.71 154.009 204.75C154.55 204.75 154.279 200.16 154.279 200.16C154.279 200.16 154.595 199.34 154.989 198.047C156.04 201.189 157.324 203.239 158.877 203.67L159.148 207.18C159.148 207.18 155.632 208.8 158.877 208.8C159.066 208.793 159.253 208.765 159.435 208.717L159.148 210.15C159.148 210.15 157.525 211.77 158.336 212.58Z" fill="#D0CDE1"/>
<path d="M227.824 357.723C347.904 357.723 445.249 356.121 445.249 354.145C445.249 352.169 347.904 350.568 227.824 350.568C107.743 350.568 10.3988 352.169 10.3988 354.145C10.3988 356.121 107.743 357.723 227.824 357.723Z" fill="#3F3D56"/>
<path d="M303.921 372.629C436.009 372.629 543.087 368.491 543.087 363.387C543.087 358.283 436.009 354.145 303.921 354.145C171.833 354.145 64.755 358.283 64.755 363.387C64.755 368.491 171.833 372.629 303.921 372.629Z" fill="#3F3D56"/>
<path d="M259.781 386.343C324.604 386.343 377.154 382.205 377.154 377.101C377.154 371.997 324.604 367.859 259.781 367.859C194.957 367.859 142.407 371.997 142.407 377.101C142.407 382.205 194.957 386.343 259.781 386.343Z" fill="#3F3D56"/>
<path d="M429.42 392.901C458.285 392.901 481.685 390.766 481.685 388.131C481.685 385.497 458.285 383.361 429.42 383.361C400.554 383.361 377.154 385.497 377.154 388.131C377.154 390.766 400.554 392.901 429.42 392.901Z" fill="#3F3D56"/>
<path d="M357.741 409C371.432 409 382.53 406.864 382.53 404.23C382.53 401.596 371.432 399.46 357.741 399.46C344.051 399.46 332.952 401.596 332.952 404.23C332.952 406.864 344.051 409 357.741 409Z" fill="#3F3D56"/>
<path d="M155.847 388.728C169.537 388.728 180.635 386.592 180.635 383.958C180.635 381.323 169.537 379.188 155.847 379.188C142.156 379.188 131.058 381.323 131.058 383.958C131.058 386.592 142.156 388.728 155.847 388.728Z" fill="#3F3D56"/>
<path d="M278.297 329.997L280.687 346.692L292.633 345.499L291.439 328.208L278.297 329.997Z" fill="#FFB8B8"/>
<path d="M221.552 329.997L219.163 346.692L207.216 345.499L208.411 328.208L221.552 329.997Z" fill="#FFB8B8"/>
<path d="M204.23 157.085C204.23 157.085 193.478 169.606 195.867 189.282C198.256 208.959 202.438 253.677 202.438 253.677L205.424 332.978L224.539 331.786L227.525 264.41L237.082 210.151L262.767 273.353C262.767 273.353 275.311 332.382 275.908 332.382C276.505 332.382 293.828 330.593 293.828 330.593L285.465 260.832C285.465 260.832 272.324 159.47 264.559 157.681C256.794 155.892 204.23 157.085 204.23 157.085Z" fill="#2F2E41"/>
<path d="M293.828 343.115C293.828 343.115 283.076 335.96 278.895 344.307C274.714 352.655 278.298 358.617 278.298 358.617C278.298 358.617 281.881 361.002 280.089 363.387C278.298 365.772 277.7 381.274 293.231 378.889C308.761 376.505 300.996 360.406 300.996 360.406L293.828 343.115Z" fill="#2F2E41"/>
<path d="M206.022 343.115C206.022 343.115 216.773 335.96 220.955 344.307C225.136 352.655 221.552 358.617 221.552 358.617C221.552 358.617 217.968 361.002 219.76 363.387C221.552 365.772 222.149 381.274 206.619 378.889C191.089 376.505 198.854 360.406 198.854 360.406L206.022 343.115Z" fill="#2F2E41"/>
<path d="M218.864 41.1146C218.864 41.1146 224.24 56.0208 220.059 64.3683C215.877 72.7158 226.629 82.2558 226.629 82.2558C226.629 82.2558 254.703 67.9458 251.119 60.7908C247.535 53.6358 241.562 44.0958 242.757 38.1334L218.864 41.1146Z" fill="#FFB8B8"/>
<path d="M229.317 46.7789C239.874 46.7789 248.431 38.2365 248.431 27.699C248.431 17.1614 239.874 8.61902 229.317 8.61902C218.761 8.61902 210.203 17.1614 210.203 27.699C210.203 38.2365 218.761 46.7789 229.317 46.7789Z" fill="#FFB8B8"/>
<path d="M215.579 63.4739C215.579 63.4739 234.757 79.4047 249.061 56.8312L263.962 65.2626L271.727 155.892C271.727 155.892 228.122 180.935 207.216 159.47L210.203 75.3989L215.579 63.4739Z" fill="#D0CDE1"/>
<path d="M221.601 54.5496L194.672 72.4174L204.23 116.54L191.686 185.108L211.995 154.7L221.601 54.5496Z" fill="#575A89"/>
<path d="M245.401 49.5763L252.015 53.934L278.895 63.4739L274.714 137.409L286.063 185.109L269.935 193.456C269.935 193.456 266.948 170.799 248.431 159.47C229.914 148.141 241.177 52.9699 245.401 49.5763Z" fill="#575A89"/>
<path d="M200.646 165.432L208.411 170.799C208.411 170.799 198.555 181.233 196.763 179.444C196.244 178.947 195.842 178.342 195.584 177.673C195.326 177.003 195.218 176.284 195.27 175.569L193.478 171.395L200.646 165.432Z" fill="#FFB8B8"/>
<path d="M252.266 164.272L249.626 168.414C249.626 168.414 241.861 171.991 243.653 174.376C245.445 176.761 260.378 182.127 263.364 176.761L266.351 171.395L252.266 164.272Z" fill="#FFB8B8"/>
<path d="M198.256 71.8214L194.075 72.4177L187.206 116.838C187.206 116.838 184.518 124.888 187.505 143.968C190.491 163.047 193.449 175.472 193.449 175.472L206.619 166.029L200.646 150.526L208.411 93.8826L198.256 71.8214Z" fill="#575A89"/>
<path d="M269.338 62.2814L278.895 63.4739C278.895 63.4739 289.647 74.8027 291.439 86.7276C293.231 98.6526 292.633 132.639 292.633 132.639L265.156 176.165L250.223 165.432L271.13 128.465L260.975 84.3426L269.338 62.2814Z" fill="#575A89"/>
<path d="M247.545 10.4422C244.654 5.7569 240.13 2.30436 234.842 0.749049L230.959 3.85032L232.469 0.233036C231.199 0.0396828 229.914 -0.0344564 228.63 0.0115902L225.136 4.49613L226.582 0.165201C223.55 0.541321 220.629 1.54047 218.003 3.09964C215.377 4.65882 213.103 6.74419 211.325 9.22427C206.878 15.6253 206.127 24.5272 210.502 30.9783C211.702 27.295 213.16 23.8387 214.36 20.1553C215.304 20.2837 216.261 20.2884 217.205 20.1691L218.666 16.7665L219.074 20.0252C223.602 19.6314 230.318 18.7669 234.611 17.9748L234.194 15.4749L236.691 17.5523C238.006 17.25 238.787 16.976 238.722 16.7665C241.915 21.9041 245.078 25.1855 248.271 30.323C249.483 23.0764 251.622 17.0528 247.545 10.4422Z" fill="#2F2E41"/>
<path d="M246.486 29.6828C247.201 29.6828 247.78 28.5262 247.78 27.0995C247.78 25.6729 247.201 24.5163 246.486 24.5163C245.771 24.5163 245.192 25.6729 245.192 27.0995C245.192 28.5262 245.771 29.6828 246.486 29.6828Z" fill="#FFB8B8"/>
<path d="M453.234 364.329C453.784 383.146 442.77 390.042 428.948 390.445C428.627 390.454 428.307 390.46 427.989 390.462C427.348 390.467 426.713 390.456 426.084 390.43C413.583 389.912 403.688 383.288 403.176 365.789C402.646 347.679 425.165 324.149 426.854 322.408L426.857 322.407C426.921 322.34 426.954 322.307 426.954 322.307C426.954 322.307 452.683 345.514 453.234 364.329Z" fill="#EEDF58"/>
<path d="M427.952 387.593L436.733 374.559L427.97 388.995L427.989 390.462C427.348 390.467 426.713 390.456 426.084 390.43L426.52 371.577L426.508 371.431L426.524 371.403L426.566 369.622L416.95 355.686L426.554 368.289L426.588 368.665L426.917 354.421L418.612 339.973L426.941 351.919L426.854 322.408L426.854 322.31L426.857 322.407L427.408 345.665L434.978 336.217L427.433 347.668L427.598 360.41L434.564 347.975L427.624 362.283L427.716 369.367L437.846 352.046L427.747 371.839L427.952 387.593Z" fill="#3F3D56"/>
<path d="M133.069 336.305C133.62 355.122 122.606 362.018 108.783 362.421C108.462 362.43 108.143 362.436 107.824 362.438C107.183 362.443 106.549 362.432 105.92 362.406C93.4189 361.888 83.5236 355.264 83.0116 337.765C82.4818 319.655 105 296.125 106.69 294.385L106.693 294.383C106.757 294.317 106.79 294.283 106.79 294.283C106.79 294.283 132.519 317.49 133.069 336.305Z" fill="#EEDF58"/>
<path d="M107.788 359.569L116.569 346.535L107.806 360.971L107.824 362.438C107.183 362.443 106.549 362.432 105.92 362.406L106.356 343.553L106.344 343.408L106.36 343.38L106.401 341.598L96.7856 327.662L106.39 340.265L106.424 340.641L106.753 326.397L98.4476 311.949L106.777 323.895L106.69 294.385L106.69 294.286L106.693 294.383L107.244 317.641L114.813 308.194L107.269 319.645L107.434 332.386L114.399 319.951L107.46 334.259L107.552 341.344L117.681 324.022L107.582 343.815L107.788 359.569Z" fill="#3F3D56"/>
<path d="M372.307 390.857C372.63 401.902 366.165 405.949 358.052 406.186C357.863 406.191 357.676 406.195 357.489 406.196C357.113 406.199 356.74 406.193 356.371 406.177C349.033 405.873 343.225 401.985 342.925 391.713C342.614 381.083 355.831 367.272 356.823 366.25L356.825 366.249C356.863 366.21 356.882 366.191 356.882 366.191C356.882 366.191 371.984 379.813 372.307 390.857Z" fill="#EAD629"/>
<path d="M357.468 404.512L362.622 396.861L357.478 405.335L357.489 406.196C357.113 406.199 356.74 406.193 356.371 406.177L356.627 395.111L356.62 395.026L356.629 395.009L356.654 393.963L351.01 385.783L356.647 393.181L356.667 393.402L356.86 385.041L351.985 376.56L356.874 383.572L356.823 366.25L356.823 366.193L356.825 366.249L357.149 379.901L361.592 374.356L357.163 381.077L357.26 388.556L361.349 381.257L357.275 389.655L357.329 393.814L363.275 383.647L357.347 395.265L357.468 404.512Z" fill="#3F3D56"/>
<path d="M572.948 30.5207C572.965 30.4662 572.983 30.4109 573 30.3562C572.993 30.3802 572.983 30.4033 572.976 30.4273L572.948 30.5207Z" fill="#2F2E41"/>
<path d="M489.476 346.902L533.719 281.228L489.567 353.968L489.659 361.358C486.429 361.382 483.231 361.329 480.063 361.197L482.258 266.203L482.198 265.47L482.279 265.328L482.489 256.352L434.038 186.133L482.432 249.633L482.603 251.531L484.261 179.759L442.412 106.959L484.38 167.151L483.942 18.458L483.943 17.9631L483.957 18.4499L486.735 135.64L524.875 88.0371L486.86 145.735L487.692 209.934L522.789 147.279L487.821 219.372L488.285 255.069L539.324 167.792L488.44 267.523L489.476 346.902Z" fill="#3F3D56"/>
<path d="M37.724 344.357L67.8296 299.667L37.7856 349.164L37.8484 354.193C35.6505 354.21 33.4741 354.173 31.3189 354.083L32.8121 289.443L32.7712 288.944L32.8263 288.848L32.9692 282.74L0 234.958L32.9303 278.168L33.0472 279.459L34.175 230.62L5.69848 181.082L34.2561 222.041L33.9581 120.86L33.9587 120.523L33.9684 120.854L35.8587 200.598L61.8117 168.206L35.9437 207.468L36.5101 251.153L60.3922 208.518L36.5979 257.576L36.9132 281.867L71.6441 222.477L37.0187 290.341L37.724 344.357Z" fill="#3F3D56"/>
</g>
<defs>
<clipPath id="clip0">
<rect width="573" height="409" fill="white"/>
</clipPath>
</defs>
</svg>
