<svg width="118" height="118" viewBox="0 0 118 118" fill="none" xmlns="http://www.w3.org/2000/svg">
<circle cx="59" cy="59" r="59" fill="white"/>
<path d="M59.9975 56.4C64.6908 56.656 68.2535 57.936 70.6855 60.24C73.1602 62.5013 74.3975 65.4667 74.3975 69.136C74.3975 71.696 73.7788 73.9787 72.5415 75.984C71.3042 77.9467 69.4695 79.504 67.0375 80.656C64.6055 81.808 61.6402 82.384 58.1415 82.384C54.8988 82.384 51.8268 81.872 48.9255 80.848C46.0668 79.7813 43.7628 78.3733 42.0135 76.624L44.2535 72.976C45.7468 74.512 47.7308 75.7707 50.2055 76.752C52.6802 77.6907 55.3255 78.16 58.1415 78.16C61.8108 78.16 64.6482 77.3707 66.6535 75.792C68.6588 74.1707 69.6615 71.952 69.6615 69.136C69.6615 66.3627 68.6588 64.1867 66.6535 62.608C64.6482 61.0293 61.6188 60.24 57.5655 60.24H54.3655V56.848L66.7815 41.296H43.8695V37.2H72.6695V40.464L59.9975 56.4Z" fill="black"/>
</svg>
