<svg width="55" height="55" viewBox="0 0 55 55" fill="none" xmlns="http://www.w3.org/2000/svg">
<path d="M53.2812 27.6406C53.2812 42.3539 41.3539 54.2812 26.6406 54.2812C11.9274 54.2812 0 42.3539 0 27.6406C0 12.9274 11.9274 1 26.6406 1C41.3539 1 53.2812 12.9274 53.2812 27.6406ZM23.5591 41.7466L43.3247 21.981C43.9959 21.3098 43.9959 20.2215 43.3247 19.5504L40.8941 17.1197C40.2229 16.4484 39.1346 16.4484 38.4634 17.1197L22.3438 33.2392L14.8179 25.7134C14.1467 25.0422 13.0584 25.0422 12.3871 25.7134L9.9565 28.144C9.28533 28.8152 9.28533 29.9035 9.9565 30.5746L21.1284 41.7465C21.7997 42.4178 22.8878 42.4178 23.5591 41.7466Z" fill="#55F381"/>
</svg>
