<svg width="118" height="118" viewBox="0 0 118 118" fill="none" xmlns="http://www.w3.org/2000/svg">
<circle cx="59" cy="59" r="59" fill="white"/>
<path d="M75.2325 77.904V82H43.8085V78.736L62.4325 60.496C64.7792 58.192 66.3578 56.208 67.1685 54.544C68.0218 52.8373 68.4485 51.1307 68.4485 49.424C68.4485 46.7787 67.5312 44.7307 65.6965 43.28C63.9045 41.7867 61.3232 41.04 57.9525 41.04C52.7045 41.04 48.6298 42.704 45.7285 46.032L42.4645 43.216C44.2138 41.168 46.4325 39.5893 49.1205 38.48C51.8512 37.3707 54.9232 36.816 58.3365 36.816C62.9018 36.816 66.5072 37.904 69.1525 40.08C71.8405 42.2133 73.1845 45.1573 73.1845 48.912C73.1845 51.216 72.6725 53.4347 71.6485 55.568C70.6245 57.7013 68.6832 60.1547 65.8245 62.928L50.5925 77.904H75.2325Z" fill="black"/>
</svg>
