<svg width="627" height="455" viewBox="0 0 627 455" fill="none" xmlns="http://www.w3.org/2000/svg">
<g clip-path="url(#clip0)">
<path d="M229.595 3.7962L214.693 11.933L31.0958 112.18L16.1937 120.317C8.9627 124.276 3.59619 130.944 1.2715 138.857C-1.05319 146.77 -0.146214 155.284 3.79346 162.529L140.514 413.288C144.47 420.524 151.133 425.895 159.04 428.221C166.948 430.548 175.455 429.64 182.695 425.697L182.734 425.676L396.058 309.197L396.097 309.176C403.328 305.218 408.694 298.55 411.019 290.637C413.343 282.723 412.436 274.21 408.497 266.965L271.776 16.2055C267.82 8.96929 261.158 3.59886 253.25 1.27247C245.342 -1.05393 236.835 -0.146312 229.595 3.7962Z" fill="#F2F2F2"/>
<path d="M233.882 11.6579L216.231 21.2954L38.1303 118.542L20.48 128.179C15.3306 130.998 11.509 135.746 9.85353 141.382C8.19805 147.017 8.84394 153.079 11.6495 158.239L148.37 408.998C151.187 414.151 155.932 417.976 161.563 419.632C167.194 421.289 173.252 420.643 178.408 417.835L178.447 417.814L391.771 301.335L391.81 301.314C396.959 298.495 400.781 293.747 402.436 288.111C404.092 282.476 403.446 276.414 400.64 271.254L263.92 20.4949C261.103 15.3419 256.358 11.5175 250.727 9.86078C245.095 8.20408 239.037 8.85038 233.882 11.6579Z" fill="white"/>
<path d="M236.825 89.4937L157.263 132.936C156.057 133.594 154.64 133.746 153.323 133.358C152.006 132.971 150.896 132.076 150.239 130.869C149.581 129.663 149.429 128.245 149.816 126.927C150.203 125.608 151.098 124.498 152.303 123.84L231.865 80.3979C233.071 79.7397 234.488 79.5877 235.805 79.9753C237.122 80.3628 238.232 81.2581 238.89 82.4643C239.547 83.6705 239.699 85.0887 239.312 86.407C238.925 87.7253 238.03 88.8356 236.825 89.4937H236.825Z" fill="#F2F2F2"/>
<path d="M263.94 94.607L165.632 148.285C164.426 148.943 163.009 149.095 161.692 148.708C160.374 148.32 159.265 147.425 158.607 146.219C157.95 145.012 157.798 143.594 158.185 142.276C158.572 140.958 159.467 139.847 160.672 139.189L258.981 85.5111C259.578 85.1853 260.233 84.9802 260.909 84.9077C261.585 84.8352 262.268 84.8966 262.921 85.0885C263.573 85.2804 264.181 85.599 264.71 86.0261C265.239 86.4531 265.679 86.9804 266.005 87.5776C266.331 88.1748 266.536 88.8304 266.608 89.5069C266.68 90.1834 266.619 90.8675 266.427 91.5203C266.236 92.173 265.917 92.7815 265.49 93.3112C265.064 93.8408 264.537 94.2811 263.94 94.607H263.94Z" fill="#F2F2F2"/>
<path d="M124.554 114.853L51.2028 154.904C50.6254 155.219 50.1968 155.751 50.0112 156.383C49.8257 157.014 49.8984 157.694 50.2134 158.272L81.4483 215.56C81.7635 216.138 82.2951 216.567 82.9262 216.752C83.5574 216.938 84.2364 216.865 84.8139 216.55L158.165 176.499C158.743 176.183 159.171 175.651 159.357 175.02C159.542 174.388 159.47 173.709 159.155 173.131L127.92 115.843C127.605 115.265 127.073 114.836 126.442 114.65C125.811 114.465 125.132 114.537 124.554 114.853Z" fill="#F2F2F2"/>
<path d="M276.301 162.183L168.386 221.107C167.789 221.433 167.134 221.638 166.458 221.71C165.782 221.783 165.098 221.721 164.446 221.529C163.793 221.338 163.185 221.019 162.656 220.592C162.127 220.165 161.687 219.638 161.361 219.04C161.036 218.443 160.831 217.788 160.758 217.111C160.686 216.435 160.747 215.75 160.939 215.098C161.131 214.445 161.449 213.836 161.876 213.307C162.303 212.777 162.829 212.337 163.426 212.011L271.342 153.087C272.547 152.429 273.964 152.277 275.282 152.664C276.599 153.052 277.709 153.947 278.366 155.154C279.024 156.36 279.176 157.778 278.789 159.096C278.401 160.414 277.507 161.525 276.301 162.183H276.301Z" fill="#F2F2F2"/>
<path d="M303.417 167.296L176.754 236.456C175.549 237.114 174.132 237.266 172.815 236.879C171.497 236.491 170.388 235.596 169.73 234.39C169.072 233.183 168.92 231.765 169.308 230.447C169.695 229.129 170.59 228.018 171.795 227.36L298.457 158.2C299.663 157.542 301.08 157.39 302.397 157.778C303.714 158.165 304.824 159.061 305.482 160.267C306.139 161.473 306.291 162.891 305.904 164.209C305.517 165.528 304.622 166.638 303.417 167.296H303.417Z" fill="#F2F2F2"/>
<path d="M127.286 269.364C139.416 269.364 149.25 259.523 149.25 247.384C149.25 235.245 139.416 225.404 127.286 225.404C115.156 225.404 105.322 235.245 105.322 247.384C105.322 259.523 115.156 269.364 127.286 269.364Z" fill="#F2F2F2"/>
<path d="M455.911 107.121H212.811C204.569 107.13 196.667 110.411 190.839 116.243C185.01 122.076 181.732 129.983 181.723 138.232V423.889C181.732 432.137 185.01 440.045 190.839 445.878C196.667 451.71 204.569 454.991 212.811 455H455.911C464.154 454.991 472.056 451.71 477.884 445.878C483.712 440.045 486.991 432.137 487 423.889V138.232C486.991 129.983 483.712 122.076 477.884 116.243C472.056 110.411 464.154 107.13 455.911 107.121Z" fill="#E6E6E6"/>
<path d="M455.912 116.077H212.811C206.942 116.083 201.314 118.42 197.164 122.573C193.014 126.727 190.679 132.358 190.672 138.232V423.889C190.679 429.763 193.014 435.394 197.164 439.548C201.314 443.701 206.942 446.037 212.811 446.044H455.912C461.781 446.037 467.408 443.701 471.559 439.547C475.709 435.394 478.044 429.763 478.05 423.889V138.232C478.044 132.358 475.709 126.727 471.559 122.573C467.409 118.42 461.781 116.084 455.912 116.077Z" fill="white"/>
<path d="M421.241 185.814H330.607C329.234 185.814 327.917 185.268 326.946 184.297C325.975 183.325 325.43 182.008 325.43 180.633C325.43 179.259 325.975 177.942 326.946 176.97C327.917 175.998 329.234 175.453 330.607 175.453H421.241C421.922 175.452 422.596 175.585 423.224 175.845C423.853 176.105 424.425 176.487 424.906 176.968C425.387 177.449 425.769 178.021 426.03 178.65C426.29 179.278 426.424 179.953 426.424 180.633C426.424 181.314 426.29 181.988 426.03 182.617C425.769 183.246 425.387 183.818 424.906 184.299C424.425 184.78 423.853 185.162 423.224 185.422C422.596 185.682 421.922 185.815 421.241 185.814Z" fill="#55F381"/>
<path d="M442.167 203.362H330.177C328.804 203.362 327.487 202.816 326.516 201.844C325.545 200.873 325 199.555 325 198.181C325 196.807 325.545 195.489 326.516 194.517C327.487 193.546 328.804 193 330.177 193H442.167C443.54 193 444.857 193.546 445.828 194.517C446.799 195.489 447.344 196.807 447.344 198.181C447.344 199.555 446.799 200.873 445.828 201.844C444.857 202.816 443.54 203.362 442.167 203.362Z" fill="#55F381"/>
<path d="M310.549 154.262H226.99C226.332 154.263 225.701 154.524 225.236 154.99C224.771 155.455 224.509 156.087 224.509 156.745V222.006C224.509 222.664 224.771 223.295 225.236 223.761C225.701 224.226 226.332 224.488 226.99 224.488H310.549C311.207 224.488 311.838 224.226 312.303 223.761C312.768 223.295 313.03 222.664 313.03 222.006V156.745C313.03 156.087 312.768 155.455 312.303 154.99C311.838 154.524 311.207 154.263 310.549 154.262Z" fill="#E6E6E6"/>
<path d="M249.911 194.337C249.945 199.846 247.916 205.169 244.224 209.255C240.57 213.268 235.13 215.929 229.641 214.828C224.587 213.814 220.48 209.393 220.992 204.045C221.077 202.887 221.414 201.761 221.978 200.746C222.542 199.731 223.321 198.851 224.26 198.168C225.199 197.486 226.275 197.016 227.414 196.792C228.553 196.568 229.727 196.596 230.854 196.872C235.656 198.119 237.569 205.044 233.568 208.295C232.608 209.075 231.228 207.711 232.198 206.923C234.842 204.775 234.025 200.074 230.833 198.895C227.116 197.522 223.178 200.474 222.911 204.277C222.594 208.786 226.045 212.181 230.278 212.98C234.856 213.845 239.396 211.5 242.499 208.263C246.054 204.504 248.017 199.513 247.973 194.337C247.982 194.086 248.088 193.848 248.268 193.673C248.449 193.498 248.691 193.4 248.942 193.4C249.193 193.4 249.435 193.498 249.616 193.673C249.796 193.848 249.902 194.086 249.911 194.337Z" fill="#2F2E41"/>
<path d="M268.835 206.666C287.929 206.666 303.408 191.176 303.408 172.068C303.408 152.96 287.929 137.469 268.835 137.469C249.74 137.469 234.261 152.96 234.261 172.068C234.261 191.176 249.74 206.666 268.835 206.666Z" fill="#6C63FF"/>
<path d="M267.066 186.83L267.03 185.537C269.433 185.471 271.552 185.32 273.145 184.155C273.596 183.807 273.967 183.365 274.233 182.86C274.498 182.354 274.652 181.798 274.683 181.228C274.711 180.88 274.658 180.53 274.529 180.205C274.4 179.881 274.198 179.59 273.938 179.357C272.881 178.464 271.181 178.753 269.941 179.322L268.872 179.812L270.922 164.82L272.202 164.996L270.458 177.748C272.143 177.253 273.703 177.466 274.772 178.37C275.183 178.728 275.505 179.177 275.713 179.681C275.922 180.184 276.011 180.73 275.974 181.274C275.936 182.039 275.732 182.787 275.375 183.466C275.018 184.144 274.517 184.736 273.907 185.2C271.861 186.696 269.202 186.77 267.066 186.83Z" fill="#2F2E41"/>
<path d="M285.491 166.096H278.532V167.388H285.491V166.096Z" fill="#2F2E41"/>
<path d="M263.527 166.096H256.568V167.388H263.527V166.096Z" fill="#2F2E41"/>
<path d="M249.684 224.488C252.275 222.842 255.076 221.553 258.011 220.654C257.731 219.658 257.735 218.603 258.023 217.61C258.413 216.354 259.198 215.258 260.261 214.486C261.324 213.713 262.608 213.306 263.921 213.324H272.345C273.661 213.307 274.947 213.715 276.012 214.489C277.077 215.262 277.864 216.359 278.256 217.616C278.545 218.608 278.549 219.66 278.269 220.654C281.203 221.554 284.004 222.844 286.596 224.488H249.684Z" fill="#2F2E41"/>
<path d="M308.437 159.227C307.807 158.464 307.032 157.833 306.157 157.372C305.389 156.971 304.536 156.76 303.67 156.758C302.48 156.772 301.325 157.162 300.369 157.87C297.739 159.732 295.918 163.746 295.918 168.394C295.918 174.225 298.786 179.061 302.513 179.901C302.893 179.986 303.281 180.03 303.67 180.031C307.94 180.031 311.422 174.814 311.422 168.394C311.422 164.671 310.252 161.354 308.437 159.227Z" fill="#3F3D56"/>
<path d="M237.429 157.592H237.423C236.559 157.055 235.565 156.767 234.548 156.758C233.682 156.76 232.829 156.971 232.061 157.372C231.186 157.833 230.411 158.464 229.781 159.227L229.774 159.234C227.965 161.361 226.796 164.677 226.796 168.394C226.796 173.411 228.915 177.69 231.886 179.326C232.7 179.782 233.616 180.025 234.548 180.031C234.755 180.031 234.962 180.018 235.168 179.992H235.175C239.154 179.513 242.3 174.497 242.3 168.394C242.3 163.507 240.278 159.311 237.429 157.592Z" fill="#3F3D56"/>
<path d="M232.371 178.214C232.525 178.213 232.676 178.177 232.813 178.106C232.95 178.036 233.068 177.934 233.158 177.809C233.248 177.684 233.306 177.539 233.329 177.387C233.352 177.235 233.338 177.079 233.289 176.934C231.437 171.422 230.88 165.558 231.661 159.796C232.442 154.035 234.541 148.531 237.793 143.712C241.045 138.894 245.364 134.891 250.413 132.014C255.463 129.138 261.107 127.465 266.907 127.127C272.708 126.788 278.508 127.792 283.857 130.062C289.207 132.331 293.961 135.804 297.751 140.211C301.541 144.619 304.265 149.841 305.71 155.473C307.156 161.104 307.284 166.994 306.085 172.683C306.032 172.935 306.081 173.197 306.221 173.413C306.361 173.628 306.582 173.779 306.833 173.832C307.085 173.885 307.347 173.836 307.562 173.696C307.777 173.555 307.928 173.335 307.981 173.083C309.243 167.102 309.108 160.91 307.589 154.988C306.07 149.067 303.207 143.576 299.223 138.942C295.238 134.308 290.239 130.656 284.615 128.27C278.99 125.884 272.892 124.828 266.793 125.184C260.694 125.54 254.76 127.299 249.451 130.324C244.142 133.348 239.602 137.558 236.183 142.624C232.764 147.69 230.559 153.477 229.738 159.535C228.918 165.594 229.505 171.759 231.453 177.553C231.518 177.746 231.641 177.913 231.806 178.031C231.971 178.15 232.168 178.213 232.371 178.214Z" fill="#3F3D56"/>
<path d="M286.202 149.651C287.571 151.521 286.897 154.041 285.454 155.654C283.577 157.752 280.584 157.884 277.985 157.495C275.069 157.058 271.976 155.69 269.023 156.612C266.507 157.397 264.712 159.681 262.098 160.255C259.779 160.764 257.007 160.09 256.194 157.617C255.803 156.429 257.674 155.92 258.063 157.102C258.588 158.702 260.859 158.67 262.159 158.227C264.244 157.516 265.85 155.789 267.899 154.964C270.315 153.991 272.935 154.43 275.395 154.984C277.713 155.507 280.381 156.281 282.69 155.305C284.399 154.583 285.758 152.309 284.529 150.63C283.791 149.622 285.472 148.653 286.202 149.651Z" fill="#2F2E41"/>
<path d="M421.105 268.545H298.171C297.491 268.545 296.818 268.411 296.19 268.151C295.562 267.89 294.991 267.509 294.51 267.028C294.029 266.547 293.648 265.975 293.388 265.347C293.128 264.718 292.994 264.045 292.994 263.364C292.994 262.684 293.128 262.01 293.388 261.382C293.648 260.753 294.029 260.182 294.51 259.701C294.991 259.22 295.562 258.838 296.19 258.578C296.818 258.317 297.491 258.183 298.171 258.183H421.105C422.477 258.185 423.792 258.731 424.762 259.703C425.732 260.674 426.276 261.991 426.276 263.364C426.276 264.737 425.732 266.054 424.762 267.026C423.792 267.997 422.477 268.544 421.105 268.545Z" fill="#E6E6E6"/>
<path d="M442.46 286.03H298.171C297.49 286.031 296.817 285.898 296.188 285.638C295.559 285.378 294.988 284.996 294.506 284.515C294.025 284.034 293.643 283.462 293.383 282.833C293.122 282.205 292.988 281.53 292.988 280.85C292.988 280.169 293.122 279.495 293.383 278.866C293.643 278.237 294.025 277.665 294.506 277.184C294.988 276.703 295.559 276.321 296.188 276.061C296.817 275.801 297.49 275.668 298.171 275.669H442.46C443.141 275.668 443.815 275.801 444.443 276.061C445.072 276.321 445.644 276.703 446.125 277.184C446.606 277.665 446.988 278.237 447.249 278.866C447.509 279.495 447.643 280.169 447.643 280.85C447.643 281.53 447.509 282.205 447.249 282.833C446.988 283.462 446.606 284.034 446.125 284.515C445.644 284.996 445.072 285.378 444.443 285.638C443.815 285.898 443.141 286.031 442.46 286.03Z" fill="#E6E6E6"/>
<path d="M421.105 331.39H298.171C296.798 331.39 295.481 330.844 294.51 329.873C293.539 328.901 292.994 327.583 292.994 326.209C292.994 324.835 293.539 323.517 294.51 322.546C295.481 321.574 296.798 321.028 298.171 321.028H421.105C422.478 321.028 423.795 321.574 424.766 322.546C425.737 323.517 426.282 324.835 426.282 326.209C426.282 327.583 425.737 328.901 424.766 329.873C423.795 330.844 422.478 331.39 421.105 331.39Z" fill="#E6E6E6"/>
<path d="M442.46 348.875H298.171C296.798 348.875 295.481 348.33 294.51 347.358C293.539 346.386 292.994 345.069 292.994 343.695C292.994 342.321 293.539 341.003 294.51 340.031C295.481 339.06 296.798 338.514 298.171 338.514H442.46C443.834 338.514 445.15 339.06 446.121 340.031C447.092 341.003 447.638 342.321 447.638 343.695C447.638 345.069 447.092 346.386 446.121 347.358C445.15 348.33 443.834 348.875 442.46 348.875Z" fill="#E6E6E6"/>
<path d="M249.516 293.892C261.646 293.892 271.48 284.051 271.48 271.912C271.48 259.773 261.646 249.933 249.516 249.933C237.385 249.933 227.552 259.773 227.552 271.912C227.552 284.051 237.385 293.892 249.516 293.892Z" fill="#E6E6E6"/>
<path d="M249.516 357.246C261.646 357.246 271.48 347.405 271.48 335.266C271.48 323.127 261.646 313.286 249.516 313.286C237.385 313.286 227.552 323.127 227.552 335.266C227.552 347.405 237.385 357.246 249.516 357.246Z" fill="#E6E6E6"/>
<path d="M421.105 394.744H298.171C296.798 394.744 295.481 394.198 294.51 393.226C293.539 392.255 292.994 390.937 292.994 389.563C292.994 388.189 293.539 386.871 294.51 385.899C295.481 384.928 296.798 384.382 298.171 384.382H421.105C422.478 384.382 423.795 384.928 424.766 385.899C425.737 386.871 426.282 388.189 426.282 389.563C426.282 390.937 425.737 392.255 424.766 393.226C423.795 394.198 422.478 394.744 421.105 394.744Z" fill="#E6E6E6"/>
<path d="M442.46 412.229H298.171C296.798 412.229 295.481 411.683 294.51 410.712C293.539 409.74 292.994 408.422 292.994 407.048C292.994 405.674 293.539 404.356 294.51 403.385C295.481 402.413 296.798 401.867 298.171 401.867H442.46C443.834 401.867 445.15 402.413 446.121 403.385C447.092 404.356 447.638 405.674 447.638 407.048C447.638 408.422 447.092 409.74 446.121 410.712C445.15 411.683 443.834 412.229 442.46 412.229Z" fill="#E6E6E6"/>
<path d="M249.516 420.599C261.646 420.599 271.48 410.758 271.48 398.619C271.48 386.48 261.646 376.64 249.516 376.64C237.385 376.64 227.552 386.48 227.552 398.619C227.552 410.758 237.385 420.599 249.516 420.599Z" fill="#E6E6E6"/>
</g>
<path d="M625.717 168.547H623.32C622.611 168.547 622.037 169.121 622.037 169.83V208.168C622.037 208.876 622.611 209.451 623.32 209.451H625.717C626.426 209.451 627 208.876 627 208.168V169.83C627 169.121 626.426 168.547 625.717 168.547Z" fill="#676767"/>
<path d="M458.602 136.5H458.384C457.675 136.5 457.101 137.074 457.101 137.783V148.683C457.101 149.392 457.675 149.966 458.384 149.966H458.602C459.311 149.966 459.885 149.392 459.885 148.683V137.783C459.885 137.074 459.311 136.5 458.602 136.5Z" fill="#3A3768"/>
<path d="M458.854 161.158H458.283C457.574 161.158 457 161.733 457 162.441V183.313C457 184.022 457.574 184.596 458.283 184.596H458.854C459.563 184.596 460.137 184.022 460.137 183.313V162.441C460.137 161.733 459.563 161.158 458.854 161.158Z" fill="#3A3768"/>
<path d="M458.753 192.797H458.333C457.625 192.797 457.05 193.371 457.05 194.08V215.153C457.05 215.862 457.625 216.436 458.333 216.436H458.753C459.462 216.436 460.036 215.862 460.036 215.153V194.08C460.036 193.371 459.462 192.797 458.753 192.797Z" fill="#3A3768"/>
<path d="M602.874 92H480.522C468.459 92 458.681 101.779 458.681 113.841V407.599C458.681 419.661 468.459 429.44 480.522 429.44H602.874C614.936 429.44 624.715 419.661 624.715 407.599V113.841C624.715 101.779 614.936 92 602.874 92Z" fill="#505050"/>
<path d="M546.7 102.077H527.85C526.653 102.077 525.682 103.048 525.682 104.245V104.615C525.682 105.812 526.653 106.783 527.85 106.783H546.7C547.897 106.783 548.868 105.812 548.868 104.615V104.245C548.868 103.048 547.897 102.077 546.7 102.077Z" fill="#E6E8EC"/>
<path d="M555.041 107.102C556.516 107.102 557.713 105.906 557.713 104.43C557.713 102.954 556.516 101.758 555.041 101.758C553.565 101.758 552.369 102.954 552.369 104.43C552.369 105.906 553.565 107.102 555.041 107.102Z" fill="#E6E8EC"/>
<path d="M601.255 100.789H582.265V103.08C582.265 105.959 581.121 108.721 579.085 110.757C577.049 112.792 574.288 113.936 571.409 113.936H510.81C507.931 113.936 505.169 112.792 503.133 110.757C501.098 108.721 499.954 105.959 499.954 103.08V100.789H482.118C480.387 100.789 478.672 101.13 477.073 101.793C475.473 102.456 474.02 103.427 472.796 104.652C471.572 105.876 470.601 107.33 469.939 108.93C469.277 110.529 468.936 112.244 468.937 113.975V407.465C468.936 409.196 469.277 410.911 469.939 412.51C470.601 414.11 471.572 415.564 472.796 416.788C474.02 418.013 475.473 418.984 477.073 419.647C478.672 420.31 480.387 420.651 482.118 420.651H601.255C604.752 420.651 608.106 419.262 610.579 416.789C613.052 414.316 614.441 410.962 614.441 407.465V113.975C614.441 110.478 613.052 107.124 610.579 104.651C608.106 102.178 604.752 100.789 601.255 100.789Z" fill="#404040"/>
<path opacity="0.1" d="M558.503 153.451H475.037V166.895H558.503V153.451Z" fill="black" stroke="#6C63FF" stroke-miterlimit="10"/>
<path opacity="0.1" d="M495.204 245.318C505.103 245.318 513.129 237.293 513.129 227.393C513.129 217.493 505.103 209.467 495.204 209.467C485.304 209.467 477.278 217.493 477.278 227.393C477.278 237.293 485.304 245.318 495.204 245.318Z" fill="black" stroke="#6C63FF" stroke-miterlimit="10"/>
<path d="M490.162 224.032V230.754H494.643L500.245 236.608V218.172L494.643 224.032H490.162Z" fill="white"/>
<path opacity="0.1" d="M542.818 245.318C552.718 245.318 560.743 237.293 560.743 227.393C560.743 217.493 552.718 209.467 542.818 209.467C532.918 209.467 524.892 217.493 524.892 227.393C524.892 237.293 532.918 245.318 542.818 245.318Z" fill="black" stroke="#6C63FF" stroke-miterlimit="10"/>
<path d="M542.818 234.877C542.394 234.874 541.979 234.998 541.626 235.232C541.273 235.466 540.997 235.799 540.833 236.19C540.669 236.581 540.625 237.011 540.707 237.427C540.788 237.843 540.991 238.225 541.29 238.526C541.588 238.826 541.97 239.031 542.385 239.114C542.8 239.198 543.231 239.156 543.623 238.994C544.015 238.833 544.349 238.559 544.585 238.206C544.821 237.854 544.947 237.44 544.947 237.016C544.947 236.451 544.723 235.908 544.324 235.507C543.925 235.106 543.383 234.88 542.818 234.877ZM536.544 215.629C536.12 215.626 535.705 215.749 535.351 215.982C534.997 216.215 534.72 216.548 534.555 216.939C534.391 217.329 534.346 217.76 534.426 218.176C534.507 218.592 534.71 218.975 535.008 219.276C535.307 219.577 535.688 219.783 536.104 219.867C536.519 219.95 536.95 219.909 537.342 219.748C537.734 219.586 538.069 219.312 538.305 218.96C538.541 218.607 538.667 218.193 538.667 217.769C538.667 217.204 538.444 216.663 538.046 216.262C537.649 215.861 537.109 215.634 536.544 215.629ZM536.544 222.049C536.12 222.045 535.704 222.168 535.35 222.402C534.996 222.635 534.719 222.968 534.555 223.359C534.39 223.75 534.346 224.181 534.427 224.598C534.508 225.014 534.711 225.397 535.01 225.698C535.309 225.998 535.691 226.203 536.107 226.287C536.523 226.37 536.954 226.328 537.346 226.166C537.738 226.003 538.073 225.728 538.308 225.375C538.543 225.022 538.668 224.607 538.667 224.183C538.667 223.619 538.444 223.078 538.046 222.678C537.648 222.278 537.108 222.052 536.544 222.049ZM536.544 228.463C536.12 228.459 535.705 228.582 535.351 228.815C534.997 229.048 534.72 229.381 534.555 229.772C534.391 230.163 534.346 230.593 534.426 231.01C534.507 231.426 534.71 231.809 535.008 232.11C535.307 232.411 535.688 232.616 536.104 232.7C536.519 232.784 536.95 232.743 537.342 232.581C537.734 232.42 538.069 232.145 538.305 231.793C538.541 231.441 538.667 231.026 538.667 230.603C538.667 230.038 538.444 229.496 538.046 229.095C537.649 228.695 537.109 228.467 536.544 228.463ZM549.092 219.909C549.515 219.911 549.93 219.788 550.284 219.554C550.637 219.32 550.913 218.987 551.077 218.596C551.24 218.205 551.284 217.774 551.203 217.359C551.122 216.943 550.919 216.56 550.62 216.26C550.321 215.96 549.94 215.755 549.525 215.671C549.109 215.588 548.678 215.629 548.287 215.791C547.895 215.953 547.56 216.227 547.325 216.579C547.089 216.931 546.963 217.345 546.963 217.769C546.962 218.049 547.017 218.327 547.123 218.586C547.23 218.845 547.387 219.081 547.584 219.28C547.782 219.479 548.017 219.636 548.275 219.744C548.534 219.852 548.811 219.908 549.092 219.909ZM542.818 228.463C542.394 228.46 541.979 228.584 541.626 228.818C541.273 229.052 540.997 229.385 540.833 229.776C540.669 230.167 540.625 230.597 540.707 231.013C540.788 231.429 540.991 231.811 541.29 232.112C541.588 232.412 541.97 232.617 542.385 232.7C542.8 232.784 543.231 232.742 543.623 232.581C544.015 232.419 544.349 232.145 544.585 231.793C544.821 231.44 544.947 231.026 544.947 230.603C544.947 230.037 544.723 229.494 544.324 229.093C543.925 228.692 543.383 228.466 542.818 228.463ZM549.092 228.463C548.668 228.46 548.253 228.584 547.9 228.818C547.547 229.052 547.271 229.385 547.107 229.776C546.943 230.167 546.899 230.597 546.98 231.013C547.062 231.429 547.265 231.811 547.564 232.112C547.862 232.412 548.244 232.617 548.659 232.7C549.074 232.784 549.505 232.742 549.897 232.581C550.288 232.419 550.623 232.145 550.859 231.793C551.095 231.44 551.22 231.026 551.22 230.603C551.22 230.037 550.997 229.494 550.598 229.093C550.199 228.692 549.657 228.466 549.092 228.463ZM549.092 222.049C548.668 222.047 548.253 222.17 547.899 222.404C547.546 222.638 547.27 222.972 547.106 223.363C546.943 223.754 546.899 224.185 546.981 224.601C547.063 225.017 547.266 225.4 547.565 225.7C547.865 226 548.247 226.204 548.662 226.287C549.078 226.37 549.509 226.328 549.901 226.165C550.292 226.003 550.627 225.727 550.862 225.375C551.097 225.022 551.222 224.607 551.22 224.183C551.22 223.618 550.996 223.076 550.597 222.676C550.198 222.276 549.657 222.05 549.092 222.049ZM542.818 222.049C542.394 222.047 541.979 222.17 541.625 222.404C541.272 222.638 540.996 222.972 540.832 223.363C540.669 223.754 540.625 224.185 540.707 224.601C540.789 225.017 540.992 225.4 541.292 225.7C541.591 226 541.973 226.204 542.389 226.287C542.804 226.37 543.235 226.328 543.627 226.165C544.018 226.003 544.353 225.727 544.588 225.375C544.823 225.022 544.948 224.607 544.947 224.183C544.947 223.618 544.722 223.076 544.323 222.676C543.924 222.276 543.383 222.05 542.818 222.049ZM542.818 215.629C542.394 215.627 541.979 215.751 541.626 215.984C541.273 216.218 540.997 216.552 540.833 216.942C540.669 217.333 540.625 217.764 540.707 218.18C540.788 218.595 540.991 218.978 541.29 219.278C541.588 219.579 541.97 219.783 542.385 219.867C542.8 219.95 543.231 219.909 543.623 219.747C544.015 219.585 544.349 219.311 544.585 218.959C544.821 218.607 544.947 218.193 544.947 217.769C544.947 217.204 544.723 216.661 544.324 216.26C543.925 215.859 543.383 215.632 542.818 215.629Z" fill="white"/>
<g opacity="0.4">
<path opacity="0.1" d="M495.204 299.094C505.103 299.094 513.129 291.069 513.129 281.169C513.129 271.269 505.103 263.244 495.204 263.244C485.304 263.244 477.278 271.269 477.278 281.169C477.278 291.069 485.304 299.094 495.204 299.094Z" fill="black" stroke="#6C63FF" stroke-miterlimit="10"/>
<path opacity="0.4" d="M503.606 282.289H496.324V289.572H494.083V282.289H486.801V280.049H494.083V272.766H496.324V280.049H503.606V282.289Z" fill="white"/>
</g>
<path opacity="0.1" d="M590.432 245.318C600.332 245.318 608.358 237.293 608.358 227.393C608.358 217.493 600.332 209.467 590.432 209.467C580.532 209.467 572.507 217.493 572.507 227.393C572.507 237.293 580.532 245.318 590.432 245.318Z" fill="black" stroke="#6C63FF" stroke-miterlimit="10"/>
<path d="M590.432 216.464C589.09 216.481 587.765 216.763 586.532 217.293C585.299 217.823 584.183 218.59 583.246 219.551C582.31 220.513 581.572 221.649 581.075 222.895C580.578 224.142 580.331 225.474 580.349 226.816V234.865C580.343 235.313 580.425 235.757 580.591 236.172C580.757 236.588 581.003 236.967 581.315 237.287C581.627 237.607 581.999 237.863 582.41 238.04C582.821 238.216 583.263 238.31 583.71 238.316H587.071V229.068H582.59V226.827C582.59 224.747 583.416 222.752 584.887 221.282C586.357 219.811 588.352 218.985 590.432 218.985C592.512 218.985 594.507 219.811 595.978 221.282C597.448 222.752 598.274 224.747 598.274 226.827V229.068H593.793V238.31H597.154C597.602 238.305 598.044 238.212 598.455 238.036C598.866 237.859 599.239 237.604 599.551 237.283C599.863 236.962 600.109 236.583 600.275 236.168C600.44 235.752 600.522 235.307 600.515 234.86V226.816C600.533 225.474 600.286 224.142 599.789 222.895C599.292 221.649 598.554 220.513 597.618 219.551C596.682 218.59 595.565 217.823 594.332 217.293C593.099 216.763 591.774 216.481 590.432 216.464Z" fill="white"/>
<g opacity="0.4">
<path opacity="0.1" d="M542.818 299.094C552.718 299.094 560.743 291.069 560.743 281.169C560.743 271.269 552.718 263.244 542.818 263.244C532.918 263.244 524.892 271.269 524.892 281.169C524.892 291.069 532.918 299.094 542.818 299.094Z" fill="black" stroke="#6C63FF" stroke-miterlimit="10"/>
<path opacity="0.4" d="M549.54 279.248V274.766C549.538 274.596 549.502 274.428 549.435 274.272C549.368 274.116 549.271 273.975 549.149 273.856C549.027 273.738 548.883 273.644 548.726 273.581C548.568 273.518 548.399 273.487 548.229 273.489H532.354C532.012 273.486 531.682 273.619 531.438 273.858C531.193 274.098 531.053 274.424 531.049 274.766V287.544C531.055 287.885 531.195 288.211 531.439 288.45C531.684 288.689 532.012 288.822 532.354 288.821H548.224C548.566 288.824 548.896 288.691 549.142 288.452C549.387 288.213 549.528 287.886 549.534 287.544V283.062L554.576 288.171V274.139L549.54 279.248Z" fill="white"/>
</g>
<path opacity="0.1" d="M590.432 299.094C600.332 299.094 608.358 291.069 608.358 281.169C608.358 271.269 600.332 263.244 590.432 263.244C580.532 263.244 572.507 271.269 572.507 281.169C572.507 291.069 580.532 299.094 590.432 299.094Z" fill="black" stroke="#6C63FF" stroke-miterlimit="10"/>
<path d="M589.547 285.785C588.583 286.332 587.494 286.619 586.385 286.619C585.277 286.619 584.187 286.332 583.223 285.785C580.747 286.541 579.229 289.045 578.669 291.246H594.101C593.541 289.045 592.029 286.541 589.547 285.785ZM586.388 274.021C585.287 274.02 584.211 274.346 583.295 274.956C582.38 275.567 581.666 276.436 581.244 277.452C580.823 278.469 580.712 279.588 580.926 280.668C581.141 281.747 581.671 282.739 582.449 283.517C583.227 284.295 584.219 284.825 585.298 285.04C586.378 285.254 587.497 285.143 588.513 284.722C589.53 284.3 590.399 283.586 591.01 282.671C591.62 281.755 591.946 280.679 591.945 279.578C591.945 278.104 591.359 276.691 590.317 275.649C589.275 274.607 587.862 274.021 586.388 274.021ZM586.388 283.813C585.552 283.797 584.738 283.538 584.047 283.066C583.357 282.594 582.819 281.931 582.5 281.158H590.27C589.952 281.931 589.416 282.595 588.726 283.068C588.037 283.541 587.224 283.802 586.388 283.819V283.813Z" fill="white"/>
<path d="M593.928 287.885H602.196C601.938 286.723 601.383 285.647 600.584 284.763C599.786 283.879 598.772 283.218 597.642 282.844C596.676 283.391 595.586 283.678 594.477 283.679C593.732 283.685 592.993 283.56 592.292 283.309C591.902 283.994 591.407 284.614 590.824 285.146C592.106 285.733 593.186 286.686 593.928 287.885ZM593.087 278.223H598.364C598.044 278.994 597.505 279.655 596.815 280.124C596.124 280.594 595.312 280.852 594.477 280.867C594.022 280.863 593.572 280.784 593.143 280.631C593.074 281.08 592.96 281.522 592.802 281.948C593.567 282.192 594.376 282.267 595.173 282.169C595.971 282.071 596.737 281.801 597.42 281.378C598.103 280.956 598.686 280.39 599.13 279.72C599.574 279.051 599.867 278.293 599.99 277.499C600.113 276.705 600.062 275.894 599.842 275.122C599.621 274.349 599.236 273.634 598.713 273.024C598.189 272.415 597.54 271.926 596.81 271.592C596.08 271.257 595.285 271.084 594.482 271.086C593.547 271.087 592.628 271.324 591.808 271.774C590.989 272.225 590.296 272.874 589.794 273.663C590.634 274.147 591.361 274.804 591.929 275.59C592.497 276.376 592.892 277.273 593.087 278.223Z" fill="white"/>
<path d="M542.818 370.796C552.718 370.796 560.743 362.771 560.743 352.871C560.743 342.971 552.718 334.945 542.818 334.945C532.918 334.945 524.892 342.971 524.892 352.871C524.892 362.771 532.918 370.796 542.818 370.796Z" fill="#FF6F61"/>
<path d="M533.614 357.296C534.595 356.37 535.711 355.599 536.925 355.01C537.113 354.927 537.272 354.79 537.382 354.617C537.493 354.443 537.55 354.241 537.547 354.036L537.642 350.551C541.068 349.533 544.728 349.631 548.095 350.832L547.999 354.316C547.997 354.518 548.047 354.718 548.145 354.895C548.243 355.071 548.386 355.22 548.56 355.324C549.776 355.958 550.878 356.791 551.82 357.789C551.921 357.896 552.042 357.982 552.176 358.042C552.311 358.103 552.456 358.136 552.603 358.14C552.75 358.144 552.897 358.119 553.035 358.067C553.172 358.014 553.298 357.935 553.405 357.834L556.251 355.134C556.465 354.93 556.591 354.649 556.599 354.353C556.607 354.057 556.498 353.77 556.295 353.554C554.575 351.738 552.514 350.278 550.23 349.259C547.946 348.239 545.483 347.68 542.983 347.612C540.482 347.545 537.993 347.97 535.657 348.865C533.321 349.759 531.184 351.105 529.368 352.826C529.261 352.927 529.176 353.049 529.116 353.183C529.056 353.318 529.023 353.463 529.02 353.61C529.016 353.757 529.042 353.904 529.095 354.041C529.148 354.179 529.227 354.304 529.329 354.411L532.023 357.257C532.125 357.363 532.246 357.449 532.381 357.509C532.516 357.569 532.661 357.601 532.808 357.605C532.955 357.609 533.102 357.583 533.239 357.53C533.376 357.477 533.502 357.398 533.609 357.296H533.614Z" fill="white"/>
<path opacity="0.1" d="M592.673 178.658C600.407 178.658 606.677 172.388 606.677 164.654C606.677 156.92 600.407 150.65 592.673 150.65C584.939 150.65 578.669 156.92 578.669 164.654C578.669 172.388 584.939 178.658 592.673 178.658Z" fill="black" stroke="#6C63FF" stroke-miterlimit="10"/>
<path d="M595.838 167.796C594.873 168.343 593.782 168.631 592.673 168.631C591.563 168.631 590.473 168.343 589.508 167.796C587.032 168.553 585.514 171.057 584.954 173.264H600.392C599.832 171.057 598.314 168.553 595.838 167.796ZM592.673 156.033C591.572 156.032 590.496 156.357 589.581 156.968C588.665 157.578 587.952 158.447 587.53 159.463C587.108 160.479 586.997 161.598 587.211 162.677C587.425 163.757 587.954 164.748 588.732 165.527C589.51 166.305 590.501 166.835 591.58 167.051C592.659 167.266 593.778 167.156 594.795 166.735C595.811 166.314 596.68 165.601 597.292 164.686C597.903 163.771 598.23 162.696 598.23 161.595C598.228 160.122 597.642 158.708 596.601 157.666C595.559 156.623 594.147 156.036 592.673 156.033ZM592.673 165.83C591.837 165.813 591.024 165.553 590.334 165.082C589.643 164.61 589.105 163.948 588.785 163.175H596.56C596.24 163.948 595.702 164.611 595.012 165.083C594.322 165.555 593.509 165.817 592.673 165.836V165.83Z" fill="white"/>
<defs>
<clipPath id="clip0">
<rect width="487" height="455" fill="white"/>
</clipPath>
</defs>
</svg>
